<svg id="Layer_1" data-name="Layer 1" xmlns="http://www.w3.org/2000/svg" viewBox="0 0 629.44 549.08"><defs><style>.cls-1{font-size:64.1px;}.cls-1,.cls-2,.cls-3,.cls-4,.cls-5,.cls-6{fill:#fff;}.cls-1,.cls-2,.cls-3,.cls-4,.cls-5,.cls-7{stroke:#fff;}.cls-1,.cls-2,.cls-3{font-family:Regensburg-Regular, Regensburg;}.cls-2{font-size:72.12px;}.cls-3{font-size:57.69px;}.cls-4,.cls-5,.cls-7{stroke-miterlimit:10;}.cls-4,.cls-7{stroke-width:3px;}.cls-7{fill:none;}</style></defs><title>skarshaugs-white</title><text class="cls-1" transform="matrix(0.92, 0.38, -0.38, 0.92, 224.89, 470.89)">-</text><text class="cls-1" transform="translate(251.07 481.28) rotate(13.98)">2</text><text class="cls-1" transform="matrix(1, 0.06, -0.06, 1, 288.07, 489.53)">0</text><text class="cls-1" transform="translate(326.98 490.75) rotate(-5.02)">1</text><text class="cls-1" transform="matrix(0.97, -0.24, 0.24, 0.97, 353.2, 488.12)">0</text><text class="cls-1" transform="matrix(0.92, -0.38, 0.38, 0.92, 390.75, 477.7)">-</text><text class="cls-2" transform="translate(185.94 130.08) rotate(-37.61)">S</text><text class="cls-2" transform="matrix(0.88, -0.47, 0.47, 0.88, 211.22, 110.77)">K</text><text class="cls-2" transform="matrix(0.95, -0.32, 0.32, 0.95, 239.53, 95.81)">A</text><text class="cls-2" transform="translate(268.98 85.92) rotate(-9.56)">R</text><text class="cls-2" transform="translate(299.97 80.82) rotate(-0.35)">S</text><text class="cls-2" transform="translate(331.81 80.82) rotate(8.82)">H</text><text class="cls-2" transform="translate(361.65 85.56) rotate(17.93)">A</text><text class="cls-2" transform="matrix(0.89, 0.46, -0.46, 0.89, 391.13, 95.19)">U</text><text class="cls-2" transform="matrix(0.8, 0.6, -0.6, 0.8, 419.71, 110.05)">G</text><text class="cls-3" transform="matrix(0.79, -0.61, 0.61, 0.79, 217.97, 168.04)">S</text><text class="cls-3" transform="matrix(0.88, -0.47, 0.47, 0.88, 238.05, 152.58)">O</text><text class="cls-3" transform="translate(260.45 140.87) rotate(-17.64)">L</text><text class="cls-3" transform="translate(285.21 133.12) rotate(-7.47)">U</text><text class="cls-3" transform="translate(310.8 130.05) rotate(1.89)">T</text><text class="cls-3" transform="matrix(0.99, 0.15, -0.15, 0.99, 332.77, 131.19)">I</text><text class="cls-3" transform="translate(343.82 132.47) rotate(15.86)">O</text><text class="cls-3" transform="translate(368.12 139.44) rotate(26.13)">N</text><text class="cls-3" transform="translate(391.67 151.17) rotate(36.24)">S</text><path class="cls-4" d="M418.2,325.63l-17.71-10.22,18-7.49a5.61,5.61,0,1,0-4.31-10.36l-25.94,10.78L369,297.25l18-7.49a5.61,5.61,0,1,0-4.32-10.35L356.8,290.19l-28-16.14,28-16.15,25.94,10.78a5.61,5.61,0,1,0,4.31-10.35l-18-7.49,19.22-11.1,25.93,10.79a5.61,5.61,0,1,0,4.31-10.36l-18-7.49,17.7-10.22a5.61,5.61,0,1,0-5.61-9.71L394.89,223l2.51-19.35a5.61,5.61,0,1,0-11.13-1.44L382.65,230l-19.22,11.1,2.51-19.33a5.61,5.61,0,1,0-11.12-1.45l-3.62,27.84-28,16.14V232L345.55,215a5.61,5.61,0,1,0-6.83-8.91l-15.48,11.84V195.72l22.3-17.06a5.62,5.62,0,0,0-6.81-8.93l-15.49,11.86V161.16a5.61,5.61,0,1,0-11.22,0V181.6l-15.5-11.85a5.61,5.61,0,0,0-8.27,7.25,5.21,5.21,0,0,0,1.46,1.65L312,195.72v22.21l-15.51-11.87a5.6,5.6,0,1,0-6.8,8.91L312,232.05v32.28l-28-16.14-3.63-27.86a5.61,5.61,0,1,0-11.12,1.45l2.52,19.34L252.6,230,249,202.16a5.61,5.61,0,1,0-11.13,1.48L240.36,223l-17.69-10.22A5.62,5.62,0,0,0,215,214.8a5.55,5.55,0,0,0,0,5.6,5.35,5.35,0,0,0,2,2l17.71,10.23-18,7.49A5.61,5.61,0,0,0,221,250.53l26-10.79,19.21,11.1-18,7.48a5.63,5.63,0,0,0-3,7.33c.11.24.22.46.33.67a5.61,5.61,0,0,0,7,2.36l25.93-10.78,28,16.14-28,16.15L252.5,279.41a5.6,5.6,0,0,0-7,8,5.47,5.47,0,0,0,2.71,2.36l18,7.5L247,308.35l-25.92-10.78a5.6,5.6,0,0,0-7,8,5.49,5.49,0,0,0,2.71,2.37l18,7.49-17.7,10.22a5.61,5.61,0,1,0,5.62,9.72l17.7-10.22-2.53,19.33a5.56,5.56,0,0,0,.7,3.53A5.62,5.62,0,0,0,249,345.92l3.62-27.85L271.81,307l-2.51,19.34a5.59,5.59,0,0,0,4.84,6.28,5.59,5.59,0,0,0,6.28-4.83l3.64-27.86L312,283.76v32.29l-22.32,17.06a5.62,5.62,0,0,0-1.44,7.26,6,6,0,0,0,.41.62,5.59,5.59,0,0,0,7.85,1L312,330.16v22.21l-22.3,17.06a5.58,5.58,0,0,0-1.45,7.27c.11.2.25.4.38.6a5.65,5.65,0,0,0,7.89,1.05L312,366.51v20.43a5.52,5.52,0,0,0,.75,2.79,5.61,5.61,0,0,0,10.47-2.79V366.49l15.49,11.85a5.61,5.61,0,1,0,6.82-8.9l-22.31-17.08V330.17L338.73,342a5.61,5.61,0,0,0,6.81-8.91l-22.3-17.06v-32.3l27.95,16.14,3.64,27.86a5.39,5.39,0,0,0,.69,2.07,5.6,5.6,0,0,0,10.42-3.51L363.43,307l19.22,11.1,3.63,27.86A5.44,5.44,0,0,0,387,348a5.62,5.62,0,0,0,10.44-3.54l-2.53-19.34,17.7,10.22a5.61,5.61,0,1,0,5.62-9.72Z" transform="translate(-2.45 0.5)"/><path class="cls-5" d="M143.28,71.82A266.29,266.29,0,0,1,491,71.76l4.41-5.9a274.08,274.08,0,0,0-356.52.06Z" transform="translate(-2.45 0.5)"/><path class="cls-5" d="M591.19,275.15c0-.37,0-.74,0-1.11s0-.84,0-1.26l-.88,1.19Z" transform="translate(-2.45 0.5)"/><path class="cls-5" d="M491.05,476.27a266.31,266.31,0,0,1-347.83-.06l-4.41,5.9a274.1,274.1,0,0,0,356.65.06Z" transform="translate(-2.45 0.5)"/><path class="cls-5" d="M43.14,272.94c0,.37,0,.73,0,1.1s0,.64,0,1l.77-1Z" transform="translate(-2.45 0.5)"/><path class="cls-6" d="M479.72,155.82c2.82-2.14,18.67-18.58,22.24-16.95-.83,8.36-6.86,18.38-10.88,25.65A89.37,89.37,0,0,1,483,176.75c-2.43,3.06-9.63,7.64-10.26,11.38-1.62,9.7,9.31,2.23,12,.23,4.58-3.46,16.09-16.62,22.1-16.92,4.42-.21,2.33,1.56,1.74,5.31-1.32,8.22-17.52,26.94-25.23,34.16s-.61,9.41,6.5,5.9c4.36-2.17,24.43-17.14,29.26-14.26,4.56,2.71-26.58,29.7-27.74,32-7.33,14.48,22.27-2.21,25.72-3.89,3.12-1.51,8.51-5.76,10.63-1.62,1.63,3.19-7.55,14.19-9.38,16.47-3.71,4.6-29,19.52-17.47,23.85,8.52,3.21,18.92-9.69,27.77-8.75,13.11,1.39-9.51,19.86-13.64,22.18-3,1.69-17.3,10.19-7.46,11.73,7.69,1.21,14.16-6.14,22.84-2.65,7.22,2.9,10.44,11.18,4.28,17-3.21,3-8.48,3.34-12.58,3.4-3.69.06-13.42-3.61-16.15-1-9,8.65,30.9,13,34.12,15.31,5.14,3.72,2.09,7.25-2.83,10.08-6.72,3.85-15.29,3.15-22.47,1.22-3-.81-12.42-6.53-15.37-3.54-6.41,6.48,8.47,9.57,11.79,11.47,7.44,4.3,20.81,19.74,4.79,23.08-7.81,1.63-14.07-4.55-18.94-9.47-2.27-2.28-8.56-10.93-11.66-4-2,4.37,6.12,9.72,8.46,12.54,3.48,4.17,7.95,10.62,9.27,16.07,3.88,16-10.65,6.68-16.89,1.4-5.09-4.29-8.55-9.36-12.89-14.1-2.29-2.51-7.4-8.62-9.46-1.62-1.78,6,24.51,35.33,16.34,39.76-7.69,4.16-26.39-23.38-29.46-28.2-10.12-15.89-12.19-34-7.23-52.16,2.41-8.84,9.72-16.66,13.07-25.34a77,77,0,0,0,5.49-28.3c-.16-20.21-13.82-32.88-18.57-51.43-4.45-17.33,1-34.42,10.94-48.79C460.94,165.83,470.61,162.71,479.72,155.82Z" transform="translate(-2.45 0.5)"/><path class="cls-7" d="M493.8,368c3.48,4.17,7.95,10.62,9.27,16.07,3.88,16-10.65,6.68-16.89,1.4-5.09-4.29-8.55-9.36-12.89-14.1-2.29-2.51-7.4-8.62-9.46-1.62-1.78,6,24.51,35.33,16.34,39.76-7.69,4.16-26.39-23.38-29.46-28.2-10.12-15.89-12.19-34-7.23-52.16,2.41-8.84,9.72-16.66,13.07-25.34a77,77,0,0,0,5.49-28.3c-.16-20.21-13.82-32.88-18.57-51.43-4.45-17.33,1-34.42,10.94-48.79,6.53-9.43,16.2-12.55,25.31-19.44,2.82-2.14,18.67-18.58,22.24-16.95-.83,8.36-6.86,18.38-10.88,25.65A89.37,89.37,0,0,1,483,176.75c-2.43,3.06-9.63,7.64-10.26,11.38-1.62,9.7,9.31,2.23,12,.23,4.58-3.46,16.09-16.62,22.1-16.92,4.42-.21,2.33,1.56,1.74,5.31-1.32,8.22-17.52,26.94-25.23,34.16s-.61,9.41,6.5,5.9c4.36-2.17,24.43-17.14,29.26-14.26,4.56,2.71-26.58,29.7-27.74,32-7.33,14.48,22.27-2.21,25.72-3.89,3.12-1.51,8.51-5.76,10.63-1.62,1.63,3.19-7.55,14.19-9.38,16.47-3.71,4.6-29,19.52-17.47,23.85,8.52,3.21,18.92-9.69,27.77-8.75,13.11,1.39-9.51,19.86-13.64,22.18-3,1.69-17.3,10.19-7.46,11.73,7.69,1.21,14.16-6.14,22.84-2.65,7.22,2.9,10.44,11.18,4.28,17-3.21,3-8.48,3.34-12.58,3.4-3.69.06-13.42-3.61-16.15-1-9,8.65,30.9,13,34.12,15.31,5.14,3.72,2.09,7.25-2.83,10.08-6.72,3.85-15.29,3.15-22.47,1.22-3-.81-12.42-6.53-15.37-3.54-6.41,6.48,8.47,9.57,11.79,11.47,7.44,4.3,20.81,19.74,4.79,23.08-7.81,1.63-14.07-4.55-18.94-9.47-2.27-2.28-8.56-10.93-11.66-4C483.33,359.8,491.46,365.15,493.8,368Z" transform="translate(-2.45 0.5)"/><path class="cls-6" d="M530.93,105.83c2.43-2.18,15.16-12.13,13.2-2.88-3,14.39-11,28.18-19.46,40-4,5.69-8.32,11.74-13.23,16.74-4.07,4.12-7.62,4.42-12.7,7.69,7.17-13.49,9-28,15.92-40.62A80.4,80.4,0,0,1,530.93,105.83Z" transform="translate(-2.45 0.5)"/><path class="cls-6" d="M550.44,137.59c5.63-1.92-1.18,16.18-4.11,21.48-7,12.62-15.77,24.09-24.58,35.43-5-1.65-10.62,2.15-14.92,4.37a94.55,94.55,0,0,0,8.93-18.41c1.08-3.09,1.81-12.34.84-13.74C517.65,165.89,545,139.44,550.44,137.59Z" transform="translate(-2.45 0.5)"/><path class="cls-6" d="M563,176c6.2-3.12,8.46-.21,5.35,6.37-5.45,11.54-14.29,21.09-23.83,29.41-3.84,3.34-8.73,8.52-13.14,8.86-7,.53-9.59-1-16.89,2.5,4.66-5.5,15.14-22.56,19.65-25.88C537.64,194.71,556.57,179.26,563,176Z" transform="translate(-2.45 0.5)"/><path class="cls-6" d="M569.88,212.78c12.7-6.39,14.89,3.74,9.1,13.41-6.06,10.14-16.17,17.11-26.28,22.77-4.51,2.53-10.78,6.73-15.19,6.12-6.91-1-8.28-3.27-16.2-.64,3.42-3.74,12.13-20.73,14.54-22.27C546.66,225.29,558.45,218.53,569.88,212.78Z" transform="translate(-2.45 0.5)"/><path class="cls-6" d="M554.67,260.44c4.18-1.29,30.77-10.46,30.9-1.15.17,10.94-12.22,20.86-20.33,26.4-3.36,2.3-16,11.21-20.41,9.76-1.16-.39-3.88-5.88-5.11-7A21.85,21.85,0,0,0,528,283.19c3.88-3.4,7.87-7.47,10.31-12.08,2.66-5,.78-4.33,6.19-7.16C547.61,262.34,551.36,261.45,554.67,260.44Z" transform="translate(-2.45 0.5)"/><path class="cls-6" d="M499.78,99.79a1.29,1.29,0,0,1,2.43.66c-.5,8.34-1.74,22.67-8.49,32.18-3.7,5.21-14.91,14.73-22.13,20.79a.85.85,0,0,1-1.25-1.13C481.38,135.55,490.6,117.6,499.78,99.79Z" transform="translate(-2.45 0.5)"/><path class="cls-6" d="M590.5,308.57c5.31,7.66-10.14,11.64-15,13.34-6.09,2.13-22.06,5.26-27.28,1.11-2.47-2-11.1-5.27-12.78-5.73a22.1,22.1,0,0,0,6.82-5.75c.83-1.1,2.82-7.55,3.47-8.05,2.74-2.15,13.6.64,16.83,1C568.54,305.15,586.58,302.94,590.5,308.57Z" transform="translate(-2.45 0.5)"/><path class="cls-6" d="M589.52,356.31c10.21,10.74-4.79,13.87-14.06,14.36a135.28,135.28,0,0,1-44.69-5.46c2-6.55-1.18-13.15-5.51-18a35.05,35.05,0,0,0,16.66-4.16c1.37-.79,5.92-5.91,7-6.22,2.16-.63,10,2.68,12.07,3.4C570.55,343.64,582.29,348.7,589.52,356.31Z" transform="translate(-2.45 0.5)"/><path class="cls-6" d="M544.91,381.78c6.36,4.43,22,16,18.24,25.48-3.62,9.14-21.6.95-27.35-1.33-3.53-1.4-23.5-7.78-25.09-11.51-.63-1.48.9-6.51.58-8.78a33.48,33.48,0,0,0-3.13-9.37,21.59,21.59,0,0,0,11.31-.19c1-.31,5.5-3.43,6.66-3.5C531.79,372.3,540.46,378.67,544.91,381.78Z" transform="translate(-2.45 0.5)"/><path class="cls-6" d="M504.3,402.14c4.74,3.08,20.39,30,15.59,33.3-5.56,3.83-31.58-17.45-32.68-22-.3-1.24.13-14.8-1.35-18.2a36.7,36.7,0,0,0,8.53,5.09C497.65,401.52,501.93,400.6,504.3,402.14Z" transform="translate(-2.45 0.5)"/><path class="cls-7" d="M470.34,152.29c11-16.74,20.26-34.69,29.44-52.5a1.29,1.29,0,0,1,2.43.66c-.5,8.34-1.74,22.67-8.49,32.18-3.7,5.21-14.91,14.73-22.13,20.79A.85.85,0,0,1,470.34,152.29Z" transform="translate(-2.45 0.5)"/><path class="cls-7" d="M525.26,347.23a35.05,35.05,0,0,0,16.66-4.16c1.37-.79,5.92-5.91,7-6.22,2.16-.63,10,2.68,12.07,3.4,9.58,3.39,21.32,8.45,28.55,16.06,10.21,10.74-4.79,13.87-14.06,14.36a135.28,135.28,0,0,1-44.69-5.46C532.78,358.66,529.59,352.06,525.26,347.23Z" transform="translate(-2.45 0.5)"/><path class="cls-7" d="M548.22,323c-2.47-2-11.1-5.27-12.78-5.73a22.1,22.1,0,0,0,6.82-5.75c.83-1.1,2.82-7.55,3.47-8.05,2.74-2.15,13.6.64,16.83,1,6,.66,24-1.55,27.94,4.08,5.31,7.66-10.14,11.64-15,13.34C569.41,324,553.44,327.17,548.22,323Z" transform="translate(-2.45 0.5)"/><path class="cls-7" d="M544.83,295.45c-1.16-.39-3.88-5.88-5.11-7A21.85,21.85,0,0,0,528,283.19c3.88-3.4,7.87-7.47,10.31-12.08,2.66-5,.78-4.33,6.19-7.16,3.07-1.61,6.82-2.5,10.13-3.51,4.18-1.29,30.77-10.46,30.9-1.15.17,10.94-12.22,20.86-20.33,26.4C561.88,288,549.25,296.9,544.83,295.45Z" transform="translate(-2.45 0.5)"/><path class="cls-7" d="M537.51,255.08c-6.91-1-8.28-3.27-16.2-.64,3.42-3.74,12.13-20.73,14.54-22.27,10.81-6.88,22.6-13.64,34-19.39,12.7-6.39,14.89,3.74,9.1,13.41-6.06,10.14-16.17,17.11-26.28,22.77C548.19,251.49,541.92,255.69,537.51,255.08Z" transform="translate(-2.45 0.5)"/><path class="cls-7" d="M531.42,220.65c-7,.53-9.59-1-16.89,2.5,4.66-5.5,15.14-22.56,19.65-25.88,3.46-2.56,22.39-18,28.86-21.26,6.2-3.12,8.46-.21,5.35,6.37-5.45,11.54-14.29,21.09-23.83,29.41C540.72,215.13,535.83,220.31,531.42,220.65Z" transform="translate(-2.45 0.5)"/><path class="cls-7" d="M521.75,194.5c-5-1.65-10.62,2.15-14.92,4.37a94.55,94.55,0,0,0,8.93-18.41c1.08-3.09,1.81-12.34.84-13.74,1-.83,28.44-27.28,33.84-29.13,5.63-1.92-1.18,16.18-4.11,21.48C539.37,171.69,530.56,183.16,521.75,194.5Z" transform="translate(-2.45 0.5)"/><path class="cls-7" d="M511.44,159.73c-4.07,4.12-7.62,4.42-12.7,7.69,7.17-13.49,9-28,15.92-40.62a80.4,80.4,0,0,1,16.27-21c2.43-2.18,15.16-12.13,13.2-2.88-3,14.39-11,28.18-19.46,40C520.63,148.68,516.35,154.73,511.44,159.73Z" transform="translate(-2.45 0.5)"/><path class="cls-7" d="M519.89,435.44c-5.56,3.83-31.58-17.45-32.68-22-.3-1.24.13-14.8-1.35-18.2a36.7,36.7,0,0,0,8.53,5.09c3.26,1.23,7.54.31,9.91,1.85C509,405.22,524.69,432.13,519.89,435.44Z" transform="translate(-2.45 0.5)"/><path class="cls-7" d="M511.29,385.64a33.48,33.48,0,0,0-3.13-9.37,21.59,21.59,0,0,0,11.31-.19c1-.31,5.5-3.43,6.66-3.5,5.66-.28,14.33,6.09,18.78,9.2,6.36,4.43,22,16,18.24,25.48-3.62,9.14-21.6.95-27.35-1.33-3.53-1.4-23.5-7.78-25.09-11.51C510.08,392.94,511.61,387.91,511.29,385.64Z" transform="translate(-2.45 0.5)"/><path class="cls-6" d="M582.14,120.53a3.17,3.17,0,0,1,4.81,1.56c5.65,17.33-13.43,41.34-15.25,42.73-2.59,2-5.07,1.51-8.54,2.62-8.22,2.63-15.55,10.33-22.53,15.25a179.6,179.6,0,0,0,16.61-27.43c2.82-5.89,4-16.19,7.21-20.8C568.13,129.16,576.08,124.66,582.14,120.53Z" transform="translate(-2.45 0.5)"/><path class="cls-6" d="M598.08,164.06c7-.9,5.37,17.9,4.28,22.23-2.23,8.8-7.06,17.05-12.55,24.23-5.95-15.84-25.13-4-33.92,1.35a105.92,105.92,0,0,0,16.71-21c2.72-4.59,3.48-12.32,6.32-15.71C582.85,170.46,592.68,167.19,598.08,164.06Z" transform="translate(-2.45 0.5)"/><path class="cls-6" d="M568.37,96.53c1.47,2.48.37,5.79-4.09,14.29-5.1,9.71-7.4,14.85-10.34,17.25-4.56,3.73-11.49,5.53-16.42,9.73a126.14,126.14,0,0,0,11.31-23.61c1.85-5.27,0-10.78,3.63-15.17,3.08-3.72,7.71-5,11-5.47C565.17,93.92,567.29,94.7,568.37,96.53Z" transform="translate(-2.45 0.5)"/><path class="cls-6" d="M615,216.09c5-1.32,1.78,16.39.66,18.75-2.53,5.29-7.06,8.56-12,11.31-2.21,1.24-10.62,3.79-15.94,2.55-7.36-1.73-13.35-.79-20.75.64a78.29,78.29,0,0,0,16.91-16.1c1.86-2.47,5-9.74,10.46-11.66C601,219.23,608.18,217.9,615,216.09Z" transform="translate(-2.45 0.5)"/><path class="cls-6" d="M622.62,270.56c8.51-1.38,9.11,9,6.16,14.13-3.37,5.87-25.07,18.44-28.73,19-4,.62-2.82-.3-7-2.87-8.28-5.12-21-3.41-30.35-4.39a73.52,73.52,0,0,0,16.65-12.21c4.19-4.07,7-10.18,11.09-13.93C593.65,267.39,616.6,271.55,622.62,270.56Z" transform="translate(-2.45 0.5)"/><path class="cls-6" d="M525.38,60.81c3.27-.27,4.27,10.66,4.29,15.69A44.1,44.1,0,0,1,528,88,45.33,45.33,0,0,1,522.38,102a62.3,62.3,0,0,1-5.35,6.89c-3.54,4.22-6.66,7.53-8.86,9.79a83.62,83.62,0,0,0,.65-19.93c-.7-7.39,1.89-12.11,5-19C515.23,76.67,520.7,61.21,525.38,60.81Z" transform="translate(-2.45 0.5)"/><path class="cls-6" d="M608.73,326.3c1.68,1.1,15.87,10.34,14.53,17.32-1.07,5.58-12.12,10.13-27,9A87.48,87.48,0,0,0,565,333.35c6.53-1.59,14.32-3.78,19.85-7.78a17.2,17.2,0,0,1,4.73-2.54,20.49,20.49,0,0,1,12.54.13A25.16,25.16,0,0,1,608.73,326.3Z" transform="translate(-2.45 0.5)"/><path class="cls-6" d="M602,393.48c.71,1.65,2.46,5.77.86,8-2.74,3.87-13.89.39-23.07-2.48-7.15-2.22-12.17-2-14.94-6.34-3.73-5.87-6.67-10.76-12.33-15.17a98.13,98.13,0,0,0,15.93,1,100.14,100.14,0,0,0,22.06-2.86A33.57,33.57,0,0,0,596.2,386C598.63,389,600.53,390.17,602,393.48Z" transform="translate(-2.45 0.5)"/><path class="cls-6" d="M575.35,426.4c4,4.5,6.55,13,3.33,17.35-2.88,3.88-9.35,2.92-21.58,1.12-14.35-2.12-22.29-3.69-27.14-10-2-2.54-2.86-11.26-4.61-14.82a123.3,123.3,0,0,0-7.78-13.64c7.73,3.72,15.56,7.36,23.83,9.73,5,1.45,12.74-.94,20.3,1.78a43.5,43.5,0,0,1,7.81,3.82A28.35,28.35,0,0,1,575.35,426.4Z" transform="translate(-2.45 0.5)"/><path class="cls-6" d="M519.35,444.58c3.52,1.29,13.88,12.63,10.55,17.75-6.38,9.78-36.46-10.83-41.4-15.43-29.17-27.23-33.9-47.52-36-50,7.33,8.63,15,14.33,24.54,20.19C483.11,420.79,505.52,439.47,519.35,444.58Z" transform="translate(-2.45 0.5)"/><path class="cls-7" d="M529.9,462.33c-6.38,9.78-36.46-10.83-41.4-15.43-29.17-27.23-33.9-47.52-36-50,7.33,8.63,15,14.33,24.54,20.19,6.1,3.74,28.51,22.42,42.34,27.53C522.87,445.87,533.23,457.21,529.9,462.33Z" transform="translate(-2.45 0.5)"/><path class="cls-7" d="M578.68,443.75c-2.88,3.88-9.35,2.92-21.58,1.12-14.35-2.12-22.29-3.69-27.14-10-2-2.54-2.86-11.26-4.61-14.82a123.3,123.3,0,0,0-7.78-13.64c7.73,3.72,15.56,7.36,23.83,9.73,5,1.45,12.74-.94,20.3,1.78a43.5,43.5,0,0,1,7.81,3.82,28.35,28.35,0,0,1,5.84,4.62C579.38,430.9,581.9,439.44,578.68,443.75Z" transform="translate(-2.45 0.5)"/><path class="cls-7" d="M602,393.48c.71,1.65,2.46,5.77.86,8-2.74,3.87-13.89.39-23.07-2.48-7.15-2.22-12.17-2-14.94-6.34-3.73-5.87-6.67-10.76-12.33-15.17a98.13,98.13,0,0,0,15.93,1,100.14,100.14,0,0,0,22.06-2.86A33.57,33.57,0,0,0,596.2,386C598.63,389,600.53,390.17,602,393.48Z" transform="translate(-2.45 0.5)"/><path class="cls-7" d="M608.73,326.3c1.68,1.1,15.87,10.34,14.53,17.32-1.07,5.58-12.12,10.13-27,9A87.48,87.48,0,0,0,565,333.35c6.53-1.59,14.32-3.78,19.85-7.78a17.2,17.2,0,0,1,4.73-2.54,20.49,20.49,0,0,1,12.54.13A25.16,25.16,0,0,1,608.73,326.3Z" transform="translate(-2.45 0.5)"/><path class="cls-7" d="M622.62,270.56c8.51-1.38,9.11,9,6.16,14.13-3.37,5.87-25.07,18.44-28.73,19-4,.62-2.82-.3-7-2.87-8.28-5.12-21-3.41-30.35-4.39a73.52,73.52,0,0,0,16.65-12.21c4.19-4.07,7-10.18,11.09-13.93C593.65,267.39,616.6,271.55,622.62,270.56Z" transform="translate(-2.45 0.5)"/><path class="cls-7" d="M615,216.09c5-1.32,1.78,16.39.66,18.75-2.53,5.29-7.06,8.56-12,11.31-2.21,1.24-10.62,3.79-15.94,2.55-7.36-1.73-13.35-.79-20.75.64a78.29,78.29,0,0,0,16.91-16.1c1.86-2.47,5-9.74,10.46-11.66C601,219.23,608.18,217.9,615,216.09Z" transform="translate(-2.45 0.5)"/><path class="cls-7" d="M598.08,164.06c7-.9,5.37,17.9,4.28,22.23-2.23,8.8-7.06,17.05-12.55,24.23-5.95-15.84-25.13-4-33.92,1.35a105.92,105.92,0,0,0,16.71-21c2.72-4.59,3.48-12.32,6.32-15.71C582.85,170.46,592.68,167.19,598.08,164.06Z" transform="translate(-2.45 0.5)"/><path class="cls-7" d="M582.14,120.53a3.17,3.17,0,0,1,4.81,1.56c5.65,17.33-13.43,41.34-15.25,42.73-2.59,2-5.07,1.51-8.54,2.62-8.22,2.63-15.55,10.33-22.53,15.25a179.6,179.6,0,0,0,16.61-27.43c2.82-5.89,4-16.19,7.21-20.8C568.13,129.16,576.08,124.66,582.14,120.53Z" transform="translate(-2.45 0.5)"/><path class="cls-7" d="M563.51,93.55c1.66.37,3.78,1.15,4.86,3,1.47,2.48.37,5.79-4.09,14.29-5.1,9.71-7.4,14.85-10.34,17.25-4.56,3.73-11.49,5.53-16.42,9.73a126.14,126.14,0,0,0,11.31-23.61c1.85-5.27,0-10.78,3.63-15.17C555.54,95.3,560.17,94.05,563.51,93.55Z" transform="translate(-2.45 0.5)"/><path class="cls-7" d="M528,88A45.33,45.33,0,0,1,522.38,102a62.3,62.3,0,0,1-5.35,6.89c-3.54,4.22-6.66,7.53-8.86,9.79a83.62,83.62,0,0,0,.65-19.93c-.7-7.39,1.89-12.11,5-19,1.4-3.08,6.87-18.54,11.55-18.94,3.27-.27,4.27,10.66,4.29,15.69A44.1,44.1,0,0,1,528,88Z" transform="translate(-2.45 0.5)"/><path class="cls-6" d="M154.62,155.82c-2.83-2.14-18.68-18.58-22.25-17,.83,8.37,6.87,18.4,10.88,25.66a90.3,90.3,0,0,0,8.06,12.23c2.44,3.06,9.64,7.64,10.27,11.38,1.62,9.7-9.31,2.23-12,.22-4.57-3.45-16.1-16.61-22.09-16.91-4.42-.22-2.34,1.56-1.74,5.31,1.31,8.22,17.5,26.93,25.23,34.16s.61,9.41-6.51,5.89c-4.36-2.16-24.43-17.13-29.26-14.25-4.55,2.72,26.59,29.7,27.74,32,7.34,14.49-22.26-2.2-25.71-3.88-3.12-1.51-8.51-5.77-10.64-1.62-1.62,3.19,7.55,14.2,9.39,16.47,3.71,4.6,29,19.52,17.46,23.86-8.52,3.2-18.92-9.7-27.76-8.76-13.11,1.39,9.5,19.86,13.63,22.19,3,1.68,17.31,10.17,7.47,11.73-7.69,1.21-14.17-6.14-22.85-2.66-7.22,2.9-10.45,11.18-4.27,17,3.2,3,8.48,3.34,12.58,3.41,3.68,0,13.42-3.62,16.14-1,9,8.64-30.9,13-34.11,15.3-5.14,3.72-2.1,7.24,2.83,10.08,6.71,3.85,15.29,3.15,22.46,1.22,3-.81,12.43-6.53,15.38-3.54,6.4,6.49-8.48,9.56-11.79,11.47-7.45,4.3-20.82,19.75-4.79,23.08,7.81,1.63,14.06-4.56,18.94-9.47,2.25-2.29,8.55-10.93,11.66-4,2,4.36-6.12,9.71-8.47,12.53-3.48,4.17-7.94,10.63-9.27,16.06-3.88,16,10.66,6.69,16.89,1.41,5.09-4.29,8.55-9.36,12.89-14.1,2.3-2.5,7.41-8.63,9.47-1.61,1.78,6-24.51,35.33-16.34,39.75,7.68,4.16,26.39-23.38,29.45-28.2,10.12-15.9,12.19-34,7.23-52.16-2.4-8.83-9.71-16.65-13.07-25.34a77.28,77.28,0,0,1-5.49-28.3c.17-20.21,13.83-32.89,18.58-51.43,4.44-17.32-1-34.41-11-48.79C173.4,165.83,163.73,162.7,154.62,155.82Z" transform="translate(-2.45 0.5)"/><path class="cls-7" d="M149,355.44c-3.11-6.93-9.41,1.71-11.66,4-4.88,4.91-11.13,11.1-18.94,9.47-16-3.33-2.66-18.78,4.79-23.08,3.31-1.91,18.19-5,11.79-11.47-2.95-3-12.38,2.73-15.38,3.54-7.17,1.93-15.75,2.63-22.46-1.22-4.93-2.84-8-6.36-2.83-10.08,3.21-2.32,43.13-6.66,34.11-15.3-2.72-2.63-12.46,1-16.14,1-4.1-.07-9.38-.39-12.58-3.41-6.18-5.82-3-14.1,4.27-17,8.68-3.48,15.16,3.87,22.85,2.66,9.84-1.56-4.47-10.05-7.47-11.73-4.13-2.33-26.74-20.8-13.63-22.19,8.84-.94,19.24,12,27.76,8.76C145,265,119.73,250.12,116,245.52c-1.84-2.27-11-13.28-9.39-16.47,2.13-4.15,7.52.11,10.64,1.62,3.45,1.68,33.05,18.37,25.71,3.88-1.15-2.3-32.29-29.28-27.74-32,4.83-2.88,24.9,12.09,29.26,14.25,7.12,3.52,14.19,1.3,6.51-5.89S127.09,185,125.78,176.75c-.6-3.75-2.68-5.53,1.74-5.31,6,.3,17.52,13.46,22.09,16.91,2.66,2,13.59,9.48,12-.22-.63-3.74-7.83-8.32-10.27-11.38a90.3,90.3,0,0,1-8.06-12.23c-4-7.26-10.05-17.29-10.88-25.66,3.57-1.62,19.42,14.82,22.25,17,9.11,6.88,18.78,10,25.3,19.44,9.91,14.38,15.39,31.47,11,48.79-4.75,18.54-18.41,31.22-18.58,51.43a77.28,77.28,0,0,0,5.49,28.3c3.36,8.69,10.67,16.51,13.07,25.34,5,18.19,2.89,36.26-7.23,52.16-3.06,4.82-21.77,32.36-29.45,28.2-8.17-4.42,18.12-33.75,16.34-39.75-2.06-7-7.17-.89-9.47,1.61-4.34,4.74-7.8,9.81-12.89,14.1-6.23,5.28-20.77,14.61-16.89-1.41,1.33-5.43,5.79-11.89,9.27-16.06C142.88,365.15,151,359.8,149,355.44Z" transform="translate(-2.45 0.5)"/><path class="cls-6" d="M103.39,105.83C101,103.65,88.24,93.7,90.21,103c3,14.39,11,28.16,19.46,40,4,5.69,8.31,11.74,13.22,16.74,4.07,4.12,7.63,4.42,12.7,7.69-7.16-13.49-9-28-15.92-40.62A80.18,80.18,0,0,0,103.39,105.83Z" transform="translate(-2.45 0.5)"/><path class="cls-6" d="M83.89,137.59c-5.63-1.92,1.19,16.18,4.12,21.48,6.95,12.62,15.76,24.09,24.58,35.44,5-1.65,10.62,2.14,14.91,4.36a95.37,95.37,0,0,1-8.92-18.41c-1.09-3.09-1.82-12.33-.85-13.74C116.68,165.9,89.3,139.43,83.89,137.59Z" transform="translate(-2.45 0.5)"/><path class="cls-6" d="M71.3,176c-6.21-3.12-8.46-.21-5.36,6.36,5.45,11.54,14.3,21.11,23.84,29.41,3.84,3.35,8.72,8.54,13.13,8.87,7,.52,9.6-1,16.89,2.51-4.66-5.51-15.14-22.57-19.64-25.89C96.69,194.71,77.76,179.27,71.3,176Z" transform="translate(-2.45 0.5)"/><path class="cls-6" d="M64.45,212.78c-12.69-6.39-14.89,3.75-9.11,13.41,6.08,10.14,16.18,17.12,26.3,22.77,4.51,2.53,10.77,6.73,15.18,6.12,6.91-1,8.28-3.27,16.2-.64-3.43-3.74-12.13-20.73-14.53-22.27C87.68,225.29,75.89,218.53,64.45,212.78Z" transform="translate(-2.45 0.5)"/><path class="cls-6" d="M79.67,260.43c-4.19-1.28-30.77-10.45-30.91-1.14-.17,10.94,12.23,20.86,20.34,26.4,3.36,2.3,16,11.21,20.41,9.76,1.16-.38,3.87-5.88,5.1-7a22,22,0,0,1,11.68-5.26c-3.87-3.4-7.86-7.47-10.3-12.08-2.67-5-.78-4.33-6.19-7.16C86.72,262.34,83,261.45,79.67,260.43Z" transform="translate(-2.45 0.5)"/><path class="cls-6" d="M134.55,99.78a1.29,1.29,0,0,0-2.43.67c.51,8.35,1.75,22.67,8.5,32.18,3.7,5.21,14.9,14.73,22.11,20.79a.86.86,0,0,0,1.27-1.13C153,135.56,143.74,117.6,134.55,99.78Z" transform="translate(-2.45 0.5)"/><path class="cls-6" d="M43.84,308.57c-5.32,7.66,10.14,11.64,15,13.34,6.08,2.14,22,5.26,27.28,1.11,2.46-2,11.1-5.27,12.78-5.73a22,22,0,0,1-6.82-5.75c-.84-1.1-2.82-7.54-3.47-8-2.74-2.16-13.6.62-16.84,1C65.79,305.15,47.75,302.94,43.84,308.57Z" transform="translate(-2.45 0.5)"/><path class="cls-6" d="M44.82,356.31c-10.21,10.75,4.78,13.87,14,14.37a135.09,135.09,0,0,0,44.7-5.48c-2-6.55,1.18-13.14,5.51-18a35,35,0,0,1-16.67-4.17c-1.36-.78-5.92-5.9-7-6.21-2.16-.63-10,2.68-12.07,3.4C63.77,343.64,52,348.7,44.82,356.31Z" transform="translate(-2.45 0.5)"/><path class="cls-6" d="M89.42,381.78c-6.35,4.42-22,16-18.24,25.48,3.62,9.14,21.61.95,27.35-1.32,3.54-1.41,23.51-7.78,25.09-11.53.63-1.47-.9-6.5-.57-8.77a33.14,33.14,0,0,1,3.12-9.37,21.7,21.7,0,0,1-11.31-.18c-1-.32-5.49-3.44-6.66-3.51C102.54,372.3,93.88,378.67,89.42,381.78Z" transform="translate(-2.45 0.5)"/><path class="cls-6" d="M130,402.14c-4.73,3.08-20.38,30-15.58,33.3,5.55,3.83,31.57-17.46,32.68-22,.3-1.25-.13-14.81,1.35-18.21a37.11,37.11,0,0,1-8.54,5.09C136.68,401.52,132.41,400.6,130,402.14Z" transform="translate(-2.45 0.5)"/><path class="cls-7" d="M162.73,153.42c-7.21-6.06-18.41-15.58-22.11-20.79-6.75-9.51-8-23.83-8.5-32.18a1.29,1.29,0,0,1,2.43-.67c9.19,17.82,18.4,35.78,29.45,52.51A.86.86,0,0,1,162.73,153.42Z" transform="translate(-2.45 0.5)"/><path class="cls-7" d="M103.57,365.2a135.09,135.09,0,0,1-44.7,5.48c-9.27-.5-24.26-3.62-14-14.37,7.22-7.61,19-12.67,28.55-16.06,2-.72,9.91-4,12.07-3.4,1,.31,5.61,5.43,7,6.21a35,35,0,0,0,16.67,4.17C104.75,352.06,101.56,358.65,103.57,365.2Z" transform="translate(-2.45 0.5)"/><path class="cls-7" d="M58.84,321.91c-4.86-1.7-20.32-5.68-15-13.34,3.91-5.63,22-3.42,27.93-4.08,3.24-.37,14.1-3.15,16.84-1,.65.5,2.63,6.94,3.47,8a22,22,0,0,0,6.82,5.75c-1.68.46-10.32,3.77-12.78,5.73C80.89,327.17,64.92,324.05,58.84,321.91Z" transform="translate(-2.45 0.5)"/><path class="cls-7" d="M69.1,285.69c-8.11-5.54-20.51-15.46-20.34-26.4.14-9.31,26.72-.14,30.91,1.14,3.3,1,7,1.91,10.13,3.52,5.41,2.83,3.52,2.12,6.19,7.16,2.44,4.61,6.43,8.68,10.3,12.08a22,22,0,0,0-11.68,5.26c-1.23,1.12-3.94,6.62-5.1,7C85.09,296.9,72.46,288,69.1,285.69Z" transform="translate(-2.45 0.5)"/><path class="cls-7" d="M81.64,249c-10.12-5.65-20.22-12.63-26.3-22.77-5.78-9.66-3.58-19.8,9.11-13.41,11.44,5.75,23.23,12.51,34,19.39,2.4,1.54,11.1,18.53,14.53,22.27-7.92-2.63-9.29-.31-16.2.64C92.41,255.69,86.15,251.49,81.64,249Z" transform="translate(-2.45 0.5)"/><path class="cls-7" d="M89.78,211.78c-9.54-8.3-18.39-17.87-23.84-29.41-3.1-6.57-.85-9.48,5.36-6.36,6.46,3.26,25.39,18.7,28.86,21.26,4.5,3.32,15,20.38,19.64,25.89-7.29-3.54-9.93-2-16.89-2.51C98.5,220.32,93.62,215.13,89.78,211.78Z" transform="translate(-2.45 0.5)"/><path class="cls-7" d="M88,159.07c-2.93-5.3-9.75-23.4-4.12-21.48,5.41,1.84,32.79,28.31,33.84,29.13-1,1.41-.24,10.65.85,13.74a95.37,95.37,0,0,0,8.92,18.41c-4.29-2.22-9.87-6-14.91-4.36C103.77,183.16,95,171.69,88,159.07Z" transform="translate(-2.45 0.5)"/><path class="cls-7" d="M109.67,143c-8.42-11.87-16.43-25.64-19.46-40-2-9.26,10.76.69,13.18,2.87a80.18,80.18,0,0,1,16.28,21c6.94,12.63,8.76,27.13,15.92,40.62-5.07-3.27-8.63-3.57-12.7-7.69C118,154.73,113.71,148.68,109.67,143Z" transform="translate(-2.45 0.5)"/><path class="cls-7" d="M130,402.14c2.38-1.54,6.65-.62,9.91-1.85a37.11,37.11,0,0,0,8.54-5.09c-1.48,3.4-1,17-1.35,18.21-1.11,4.57-27.13,25.86-32.68,22C109.65,432.13,125.3,405.22,130,402.14Z" transform="translate(-2.45 0.5)"/><path class="cls-7" d="M123.62,394.41c-1.58,3.75-21.55,10.12-25.09,11.53-5.74,2.27-23.73,10.46-27.35,1.32-3.74-9.47,11.89-21.06,18.24-25.48,4.46-3.11,13.12-9.48,18.78-9.2,1.17.07,5.63,3.19,6.66,3.51a21.7,21.7,0,0,0,11.31.18,33.14,33.14,0,0,0-3.12,9.37C122.72,387.91,124.25,392.94,123.62,394.41Z" transform="translate(-2.45 0.5)"/><path class="cls-6" d="M52.2,120.52a3.18,3.18,0,0,0-4.82,1.57c-5.64,17.32,13.44,41.33,15.25,42.72,2.59,2,5.08,1.52,8.55,2.63,8.21,2.63,15.55,10.33,22.53,15.26A177.71,177.71,0,0,1,77.1,155.27c-2.83-5.9-4-16.2-7.21-20.81C66.2,129.16,58.24,124.65,52.2,120.52Z" transform="translate(-2.45 0.5)"/><path class="cls-6" d="M36.25,164.06c-7-.91-5.36,17.9-4.27,22.23,2.22,8.81,7.06,17.06,12.54,24.23,6-15.83,25.14-3.94,33.93,1.35a106.2,106.2,0,0,1-16.72-21c-2.72-4.6-3.48-12.33-6.31-15.73C51.48,170.47,41.66,167.2,36.25,164.06Z" transform="translate(-2.45 0.5)"/><path class="cls-6" d="M66,96.53c-1.49,2.48-.38,5.79,4.09,14.29,5.1,9.71,7.4,14.85,10.33,17.25,4.56,3.73,11.5,5.54,16.43,9.73a125.22,125.22,0,0,1-11.31-23.61c-1.86-5.27,0-10.78-3.63-15.18-3.08-3.71-7.71-5-11.06-5.45C69.17,93.92,67.05,94.7,66,96.53Z" transform="translate(-2.45 0.5)"/><path class="cls-6" d="M19.3,216.08c-4.93-1.31-1.76,16.4-.64,18.77,2.52,5.28,7.06,8.56,12,11.31,2.21,1.22,10.63,3.78,15.94,2.54,7.37-1.73,13.35-.79,20.75.64a78.71,78.71,0,0,1-16.9-16.1c-1.86-2.48-5-9.73-10.47-11.65C33.33,219.24,26.15,217.9,19.3,216.08Z" transform="translate(-2.45 0.5)"/><path class="cls-6" d="M11.72,270.56c-8.52-1.39-9.11,9-6.16,14.12,3.37,5.88,25.06,18.45,28.73,19,4,.62,2.81-.28,7-2.87,8.28-5.11,21.06-3.4,30.36-4.38A73.92,73.92,0,0,1,55,284.25c-4.18-4.08-7-10.19-11.08-13.95C40.69,267.39,17.74,271.54,11.72,270.56Z" transform="translate(-2.45 0.5)"/><path class="cls-6" d="M109,60.81c-3.26-.27-4.27,10.67-4.28,15.69A43.4,43.4,0,0,0,106.34,88,45.65,45.65,0,0,0,112,102a63.61,63.61,0,0,0,5.36,6.89c3.54,4.22,6.65,7.53,8.86,9.79a84.15,84.15,0,0,1-.67-19.93c.71-7.4-1.87-12.1-5-19C119.1,76.68,113.63,61.21,109,60.81Z" transform="translate(-2.45 0.5)"/><path class="cls-6" d="M25.61,326.29c-1.68,1.11-15.87,10.34-14.53,17.34,1.06,5.57,12.11,10.12,27,9A87.18,87.18,0,0,1,69.3,333.35c-6.53-1.6-14.32-3.79-19.85-7.78A17,17,0,0,0,44.71,323c-5.51-1.91-10.71-.41-12.53.13A25.14,25.14,0,0,0,25.61,326.29Z" transform="translate(-2.45 0.5)"/><path class="cls-6" d="M32.39,393.49c-.71,1.64-2.47,5.77-.87,8,2.74,3.89,13.89.4,23.08-2.47,7.14-2.22,12.16-2,14.94-6.35,3.72-5.86,6.67-10.75,12.33-15.15a100.51,100.51,0,0,1-38-1.88A33.75,33.75,0,0,1,38.13,386C35.71,389,33.81,390.17,32.39,393.49Z" transform="translate(-2.45 0.5)"/><path class="cls-6" d="M59,426.39c-4,4.51-6.54,13-3.33,17.36,2.89,3.88,9.36,2.93,21.58,1.12,14.35-2.11,22.3-3.69,27.14-10,2-2.54,2.87-11.26,4.62-14.83a122.26,122.26,0,0,1,7.77-13.62c-7.73,3.72-15.56,7.35-23.83,9.72-5,1.45-12.73-.94-20.3,1.78a44.4,44.4,0,0,0-7.8,3.82A28.29,28.29,0,0,0,59,426.39Z" transform="translate(-2.45 0.5)"/><path class="cls-6" d="M115,444.58c-3.52,1.3-13.88,12.64-10.55,17.75,6.38,9.78,36.46-10.83,41.4-15.43,29.16-27.23,33.89-47.53,36-50-7.33,8.62-15,14.33-24.55,20.19C151.23,420.78,128.82,439.47,115,444.58Z" transform="translate(-2.45 0.5)"/><path class="cls-7" d="M115,444.58c13.83-5.11,36.24-23.8,42.33-27.53,9.51-5.86,17.22-11.57,24.55-20.19-2.14,2.51-6.87,22.81-36,50-4.94,4.6-35,25.21-41.4,15.43C101.11,457.22,111.47,445.88,115,444.58Z" transform="translate(-2.45 0.5)"/><path class="cls-7" d="M59,426.39a28.29,28.29,0,0,1,5.85-4.61,44.4,44.4,0,0,1,7.8-3.82c7.57-2.72,15.28-.33,20.3-1.78,8.27-2.37,16.1-6,23.83-9.72A122.26,122.26,0,0,0,109,420.08c-1.75,3.57-2.65,12.29-4.62,14.83-4.84,6.27-12.79,7.85-27.14,10-12.22,1.81-18.69,2.76-21.58-1.12C52.44,439.43,55,430.9,59,426.39Z" transform="translate(-2.45 0.5)"/><path class="cls-7" d="M38.13,386a33.75,33.75,0,0,0,5.75-10.35,100.51,100.51,0,0,0,38,1.88c-5.66,4.4-8.61,9.29-12.33,15.15-2.78,4.38-7.8,4.13-14.94,6.35-9.19,2.87-20.34,6.36-23.08,2.47-1.6-2.26.16-6.39.87-8C33.81,390.17,35.71,389,38.13,386Z" transform="translate(-2.45 0.5)"/><path class="cls-7" d="M32.18,323.16c1.82-.54,7-2,12.53-.13a17,17,0,0,1,4.74,2.54c5.53,4,13.32,6.18,19.85,7.78A87.18,87.18,0,0,0,38,352.63c-14.85,1.12-25.9-3.43-27-9-1.34-7,12.85-16.23,14.53-17.34A25.14,25.14,0,0,1,32.18,323.16Z" transform="translate(-2.45 0.5)"/><path class="cls-7" d="M43.89,270.3c4.11,3.76,6.9,9.87,11.08,13.95a73.92,73.92,0,0,0,16.66,12.2c-9.3,1-22.08-.73-30.36,4.38-4.17,2.59-3,3.49-7,2.87-3.67-.57-25.36-13.14-28.73-19-2.95-5.11-2.36-15.51,6.16-14.12C17.74,271.54,40.69,267.39,43.89,270.3Z" transform="translate(-2.45 0.5)"/><path class="cls-7" d="M40,221.59c5.49,1.92,8.61,9.17,10.47,11.65a78.71,78.71,0,0,0,16.9,16.1C60,247.91,54,247,46.64,248.7c-5.31,1.24-13.73-1.32-15.94-2.54-5-2.75-9.52-6-12-11.31-1.12-2.37-4.29-20.08.64-18.77C26.15,217.9,33.33,219.24,40,221.59Z" transform="translate(-2.45 0.5)"/><path class="cls-7" d="M55.42,175.14c2.83,3.4,3.59,11.13,6.31,15.73a106.2,106.2,0,0,0,16.72,21c-8.79-5.29-28-17.18-33.93-1.35C39,203.35,34.2,195.1,32,186.29c-1.09-4.33-2.69-23.14,4.27-22.23C41.66,167.2,51.48,170.47,55.42,175.14Z" transform="translate(-2.45 0.5)"/><path class="cls-7" d="M69.89,134.46c3.2,4.61,4.38,14.91,7.21,20.81A177.71,177.71,0,0,0,93.71,182.7c-7-4.93-14.32-12.63-22.53-15.26-3.47-1.11-6-.63-8.55-2.63-1.81-1.39-20.89-25.4-15.25-42.72a3.18,3.18,0,0,1,4.82-1.57C58.24,124.65,66.2,129.16,69.89,134.46Z" transform="translate(-2.45 0.5)"/><path class="cls-7" d="M81.88,99c3.66,4.4,1.77,9.91,3.63,15.18A125.22,125.22,0,0,0,96.82,137.8c-4.93-4.19-11.87-6-16.43-9.73-2.93-2.4-5.23-7.54-10.33-17.25C65.59,102.32,64.48,99,66,96.53c1.08-1.83,3.2-2.61,4.85-3C74.17,94.05,78.8,95.3,81.88,99Z" transform="translate(-2.45 0.5)"/><path class="cls-7" d="M104.67,76.5c0-5,1-16,4.28-15.69,4.68.4,10.15,15.87,11.55,18.94,3.13,6.85,5.71,11.55,5,19a84.15,84.15,0,0,0,.67,19.93c-2.21-2.26-5.32-5.57-8.86-9.79A63.61,63.61,0,0,1,112,102,45.65,45.65,0,0,1,106.34,88,43.4,43.4,0,0,1,104.67,76.5Z" transform="translate(-2.45 0.5)"/></svg>