<svg id="Layer_1" data-name="Layer 1" xmlns="http://www.w3.org/2000/svg" viewBox="0 0 629.46 549.08"><defs><style>.cls-1{isolation:isolate;}.cls-2{fill:#1d1d1b;}.cls-3{fill:none;stroke:#1d1d1b;}</style></defs><title>skarshaugs-black</title><g class="cls-1"><path class="cls-2" d="M246.68,459.25l-12.32-5.09,2.85-6.9,12.32,5.09Z" transform="translate(0.01 0)"/></g><g class="cls-1"><path class="cls-3" d="M246.68,459.25l-12.32-5.09,2.85-6.9,12.32,5.09Z" transform="translate(0.01 0)"/></g><g class="cls-1"><path class="cls-2" d="M280.33,465.38l-15.64,3.9-1.82,7.34,6.46,1.61,1.83-7.34,7.34,1.83-3.64,14.61L253,481.88l4.63-18.59,15.49-3.87,2.67-10.7-6.35-1.58-1.83,7.34-7.33-1.83L263.88,438l21.9,5.45Z" transform="translate(0.01 0)"/></g><g class="cls-1"><path class="cls-3" d="M280.33,465.38l-15.64,3.9-1.82,7.34,6.46,1.61,1.83-7.34,7.34,1.83-3.64,14.61L253,481.88l4.63-18.59,15.49-3.87,2.67-10.7-6.35-1.58-1.83,7.34-7.33-1.83L263.88,438l21.9,5.45Z" transform="translate(0.01 0)"/></g><g class="cls-1"><path class="cls-2" d="M313.45,491.12l-22.63-1.36,2.71-45.19,22.63,1.36ZM308.15,453l-7.5-.45-1.81,30.19,7.5.45Z" transform="translate(0.01 0)"/></g><g class="cls-1"><path class="cls-3" d="M313.45,491.12l-22.63-1.36,2.71-45.19,22.63,1.36ZM308.15,453l-7.5-.45-1.81,30.19,7.5.45Z" transform="translate(0.01 0)"/></g><g class="cls-1"><path class="cls-2" d="M339.83,489.75l-7.54.66L329,452.87l-3.7.32,3-7.86,7.54-.66Z" transform="translate(0.01 0)"/></g><g class="cls-1"><path class="cls-3" d="M339.83,489.75l-7.54.66L329,452.87l-3.7.32,3-7.86,7.54-.66Z" transform="translate(0.01 0)"/></g><g class="cls-1"><path class="cls-2" d="M377.84,482.09l-21.95,5.43L345,443.69,367,438.25Zm-16.38-34.75-7.28,1.8,7.25,29.29,7.27-1.8Z" transform="translate(0.01 0)"/></g><g class="cls-1"><path class="cls-3" d="M377.84,482.09l-21.95,5.43L345,443.69,367,438.25Zm-16.38-34.75-7.28,1.8,7.25,29.29,7.27-1.8Z" transform="translate(0.01 0)"/></g><g class="cls-1"><path class="cls-2" d="M398,454.08l-12.32,5.09-2.85-6.9,12.32-5.09Z" transform="translate(0.01 0)"/></g><g class="cls-1"><path class="cls-3" d="M398,454.08l-12.32,5.09-2.85-6.9,12.32-5.09Z" transform="translate(0.01 0)"/></g><g class="cls-1"><path class="cls-2" d="M193.27,93.75l14.93,19.37-6.75,5.19-6.68,5.15L188,128.65l-10.35-13.42,6.75-5.2,5.19,6.75,6.68-5.15-6.47-8.4-18.13,4.23L157,88.38l20.17-15.54,10.34,13.42-6.74,5.2-5.2-6.74-6.68,5.15,6.2,8Z" transform="translate(0.01 0)"/></g><g class="cls-1"><path class="cls-3" d="M193.27,93.75l14.93,19.37-6.75,5.19-6.68,5.15L188,128.65l-10.35-13.42,6.75-5.2,5.19,6.75,6.68-5.15-6.47-8.4-18.13,4.23L157,88.38l20.17-15.54,10.34,13.42-6.74,5.2-5.2-6.74-6.68,5.15,6.2,8Z" transform="translate(0.01 0)"/></g><g class="cls-1"><path class="cls-2" d="M235.82,97.72l-7.49,4-4-7.43L220,86.17l-11.39-3.46,8.3,15.54,4,7.43-7.49,4-23.9-44.74,7.49-4,4,7.42,2,3.81,9.06,2.75.67-2.4L208.4,64.4l-4-7.43,7.49-4,10,18.66-1.74,5.75,5.71,1.68Z" transform="translate(0.01 0)"/></g><g class="cls-1"><path class="cls-3" d="M235.82,97.72l-7.49,4-4-7.43L220,86.17l-11.39-3.46,8.3,15.54,4,7.43-7.49,4-23.9-44.74,7.49-4,4,7.42,2,3.81,9.06,2.75.67-2.4L208.4,64.4l-4-7.43,7.49-4,10,18.66-1.74,5.75,5.71,1.68Z" transform="translate(0.01 0)"/></g><g class="cls-1"><path class="cls-2" d="M265.75,87.13l-8.09,2.72-5.42-16.1-9.35-1.27,6.76,20.07-8.09,2.73L225.29,47l24.19-8.15ZM244.09,49.57l-8,2.7,4.06,12.06,9.38,1.34Z" transform="translate(0.01 0)"/></g><g class="cls-1"><path class="cls-3" d="M265.75,87.13l-8.09,2.72-5.42-16.1-9.35-1.27,6.76,20.07-8.09,2.73L225.29,47l24.19-8.15ZM244.09,49.57l-8,2.7,4.06,12.06,9.38,1.34Z" transform="translate(0.01 0)"/></g><g class="cls-1"><path class="cls-2" d="M296.41,81.59,288,83l-3.36-19.92-9-2.72,4.05,24-8.4,1.41-8.44-50.14,8.39-1.41L288,31.45l3.33,19.78-4,3.81,4.9,1.52,1.57,9.32ZM281,41.19l-8.32,1.4.72,4.27.7,4.12,9,2.8Z" transform="translate(0.01 0)"/></g><g class="cls-1"><path class="cls-3" d="M296.41,81.59,288,83l-3.36-19.92-9-2.72,4.05,24-8.4,1.41-8.44-50.14,8.39-1.41L288,31.45l3.33,19.78-4,3.81,4.9,1.52,1.57,9.32ZM281,41.19l-8.32,1.4.72,4.27.7,4.12,9,2.8Z" transform="translate(0.01 0)"/></g><g class="cls-1"><path class="cls-2" d="M327.8,56.34,328,80.79l-8.51.06L311,80.9l-8.5,0-.11-17,8.51,0,.05,8.51,8.44,0-.06-10.6-17-7.62-.15-24.08L327.64,30l.11,17-8.51.05-.06-8.51-8.43.05.06,10.17Z" transform="translate(0.01 0)"/></g><g class="cls-1"><path class="cls-3" d="M327.8,56.34,328,80.79l-8.51.06L311,80.9l-8.5,0-.11-17,8.51,0,.05,8.51,8.44,0-.06-10.6-17-7.62-.15-24.08L327.64,30l.11,17-8.51.05-.06-8.51-8.43.05.06,10.17Z" transform="translate(0.01 0)"/></g><g class="cls-1"><path class="cls-2" d="M365.54,35.11l-7.72,49.75-7.55-1.18L353,66.08l-8.37-6.77-3.56,23-7.55-1.17,7.72-49.75,7.55,1.17-3,19.1L354.26,58l3.73-24Z" transform="translate(0.01 0)"/></g><g class="cls-1"><path class="cls-3" d="M365.54,35.11l-7.72,49.75-7.55-1.18L353,66.08l-8.37-6.77-3.56,23-7.55-1.17,7.72-49.75,7.55,1.17-3,19.1L354.26,58l3.73-24Z" transform="translate(0.01 0)"/></g><g class="cls-1"><path class="cls-2" d="M387.82,94.18l-8.1-2.62,5.22-16.13-6.74-6.57L371.69,89l-8.09-2.62L379.25,38l24.22,7.83Zm5-43-8-2.6-3.91,12.08,6.72,6.65Z" transform="translate(0.01 0)"/></g><g class="cls-1"><path class="cls-3" d="M387.82,94.18l-8.1-2.62,5.22-16.13-6.74-6.57L371.69,89l-8.09-2.62L379.25,38l24.22,7.83Zm5-43-8-2.6-3.91,12.08,6.72,6.65Z" transform="translate(0.01 0)"/></g><g class="cls-1"><path class="cls-2" d="M416.22,108.32,393.57,96.61,417,51.36l7.57,3.92L405,93l7.51,3.88L432,59.16l7.57,3.91Z" transform="translate(0.01 0)"/></g><g class="cls-1"><path class="cls-3" d="M416.22,108.32,393.57,96.61,417,51.36l7.57,3.92L405,93l7.51,3.88L432,59.16l7.57,3.91Z" transform="translate(0.01 0)"/></g><g class="cls-1"><path class="cls-2" d="M451.24,118,450.17,116,442,126.8l-20.37-15.28,30.51-40.67,20.36,15.27-7.61,10.16-6.81-5.11,2.55-3.4-6.75-5.07-20.38,27.18,6.75,5.06,5.59-7.44L443.13,102l5.15-6.87,8.33,15.71Z" transform="translate(0.01 0)"/></g><g class="cls-1"><path class="cls-3" d="M451.24,118,450.17,116,442,126.8l-20.37-15.28,30.51-40.67,20.36,15.27-7.61,10.16-6.81-5.11,2.55-3.4-6.75-5.07-20.38,27.18,6.75,5.06,5.59-7.44L443.13,102l5.15-6.87,8.33,15.71Z" transform="translate(0.01 0)"/></g><g class="cls-1"><path class="cls-2" d="M223.79,139l11.93,15.45-5.37,4.15L225,162.75l-5.37,4.15-8.27-10.71,5.37-4.15,4.16,5.37,5.33-4.11-5.17-6.7L206.58,150l-11.75-15.22,16.08-12.42,8.27,10.71-5.37,4.15-4.16-5.38L204.32,136l5,6.43Z" transform="translate(0.01 0)"/></g><g class="cls-1"><path class="cls-3" d="M223.79,139l11.93,15.45-5.37,4.15L225,162.75l-5.37,4.15-8.27-10.71,5.37-4.15,4.16,5.37,5.33-4.11-5.17-6.7L206.58,150l-11.75-15.22,16.08-12.42,8.27,10.71-5.37,4.15-4.16-5.38L204.32,136l5,6.43Z" transform="translate(0.01 0)"/></g><g class="cls-1"><path class="cls-2" d="M257.57,142.22l-17.92,9.57L220.54,116l17.92-9.57Zm-21.93-26.65-5.94,3.17,12.77,23.91,5.94-3.17Z" transform="translate(0.01 0)"/></g><g class="cls-1"><path class="cls-3" d="M257.57,142.22l-17.92,9.57L220.54,116l17.92-9.57Zm-21.93-26.65-5.94,3.17,12.77,23.91,5.94-3.17Z" transform="translate(0.01 0)"/></g><g class="cls-1"><path class="cls-2" d="M282.09,134.11l-19.41,6.17-12.32-38.76,6.49-2.06,10.28,32.32,6.43-2-4.11-12.92L277,118Z" transform="translate(0.01 0)"/></g><g class="cls-1"><path class="cls-3" d="M282.09,134.11l-19.41,6.17-12.32-38.76,6.49-2.06,10.28,32.32,6.43-2-4.11-12.92L277,118Z" transform="translate(0.01 0)"/></g><g class="cls-1"><path class="cls-2" d="M307.65,130.29l-20.19,2.65-5.29-40.32,6.75-.89,4.41,33.63,6.69-.87-4.41-33.64,6.75-.88Z" transform="translate(0.01 0)"/></g><g class="cls-1"><path class="cls-3" d="M307.65,130.29l-20.19,2.65-5.29-40.32,6.75-.89,4.41,33.63,6.69-.87-4.41-33.64,6.75-.88Z" transform="translate(0.01 0)"/></g><g class="cls-1"><path class="cls-2" d="M330.59,96.94l-5.36-.18-1.12,34-6.8-.22,1.12-34-5.36-.17.22-6.75,17.53.58Z" transform="translate(0.01 0)"/></g><g class="cls-1"><path class="cls-3" d="M330.59,96.94l-5.36-.18-1.12,34-6.8-.22,1.12-34-5.36-.17.22-6.75,17.53.58Z" transform="translate(0.01 0)"/></g><g class="cls-1"><path class="cls-2" d="M340.41,91.57l6,.91-6,39.87-6.05-.92Z" transform="translate(0.01 0)"/></g><g class="cls-1"><path class="cls-3" d="M340.41,91.57l6,.91-6,39.87-6.05-.92Z" transform="translate(0.01 0)"/></g><g class="cls-1"><path class="cls-2" d="M365.11,138.58,345.53,133l11.11-39.12,19.59,5.57Zm2.73-34.49-6.5-1.85-7.42,26.14,6.49,1.85Z" transform="translate(0.01 0)"/></g><g class="cls-1"><path class="cls-3" d="M365.11,138.58,345.53,133l11.11-39.12,19.59,5.57Zm2.73-34.49-6.5-1.85-7.42,26.14,6.49,1.85Z" transform="translate(0.01 0)"/></g><g class="cls-1"><path class="cls-2" d="M375.92,143.59l-6.11-3,17.91-36.52,6.11,3,2.49,11.44,4-8.24,6.11,3-17.92,36.52-6.11-3,9.43-19.22-2.54-11.33Z" transform="translate(0.01 0)"/></g><g class="cls-1"><path class="cls-3" d="M375.92,143.59l-6.11-3,17.91-36.52,6.11,3,2.49,11.44,4-8.24,6.11,3-17.92,36.52-6.11-3,9.43-19.22-2.54-11.33Z" transform="translate(0.01 0)"/></g><g class="cls-1"><path class="cls-2" d="M421.22,148.72,409.66,164.5l-5.5-4-5.44-4-5.49-4,8-10.94,5.5,4-4,5.49,5.45,4,5-6.84-7.29-13,11.39-15.54,16.43,12-8,10.94-5.49-4,4-5.49-5.45-4L414,135.68Z" transform="translate(0.01 0)"/></g><g class="cls-1"><path class="cls-3" d="M421.22,148.72,409.66,164.5l-5.5-4-5.44-4-5.49-4,8-10.94,5.5,4-4,5.49,5.45,4,5-6.84-7.29-13,11.39-15.54,16.43,12-8,10.94-5.49-4,4-5.49-5.45-4L414,135.68Z" transform="translate(0.01 0)"/></g><path class="cls-2" d="M415.75,326.13,398,315.91l18-7.49a5.61,5.61,0,1,0-4.31-10.36l-25.94,10.78-19.24-11.09,18-7.49a5.61,5.61,0,1,0-4-10.47c-.1,0-.2.08-.3.12l-25.88,10.78-28-16.14,28-16.15,25.94,10.78A5.61,5.61,0,1,0,385,259l-.4-.17-18-7.49,19.22-11.1L411.75,251a5.61,5.61,0,0,0,4.31-10.36l-18-7.49L415.76,223a5.61,5.61,0,1,0-5.3-9.89l-.31.18L392.44,223.5,395,204.15a5.61,5.61,0,1,0-11.13-1.44L380.2,230.5,361,241.6l2.51-19.33a5.61,5.61,0,0,0-11.07-1.81c0,.12,0,.24-.05.36l-3.62,27.84-28,16.14V232.5l22.35-17a5.61,5.61,0,1,0-6.83-8.91l-15.48,11.84V196.22l22.3-17.06a5.62,5.62,0,0,0-6.81-8.93l-15.49,11.86V161.66a5.61,5.61,0,0,0-11.22,0V182.1l-15.5-11.85a5.61,5.61,0,0,0-8.27,7.25,5.13,5.13,0,0,0,1.46,1.65l22.29,17.07v22.21L294,206.56a5.6,5.6,0,0,0-6.8,8.91h0l22.31,17.08v32.28l-28-16.14-3.63-27.86a5.61,5.61,0,1,0-11.17,1.09c0,.12,0,.24.05.36l2.52,19.34L250.15,230.5l-3.6-27.84a5.61,5.61,0,1,0-11.13,1.48h0l2.49,19.36-17.69-10.22a5.62,5.62,0,0,0-7.67,2,5.55,5.55,0,0,0,0,5.6,5.48,5.48,0,0,0,2,2l17.71,10.23-18,7.49A5.63,5.63,0,0,0,218.55,251h0l26-10.79,19.21,11.1-18,7.48a5.63,5.63,0,0,0-3,7.33c.11.24.22.46.33.67a5.6,5.6,0,0,0,7,2.36L276,258.4l28,16.14-28,16.15-26-10.78a5.6,5.6,0,0,0-7,8,5.48,5.48,0,0,0,2.71,2.36l18,7.5-19.21,11.08-25.92-10.78a5.6,5.6,0,0,0-7,8,5.5,5.5,0,0,0,2.71,2.37l18,7.49-17.7,10.22a5.61,5.61,0,1,0,5.62,9.72L238,325.65,235.43,345a5.61,5.61,0,0,0,11.12,1.44l3.62-27.85,19.19-11.07-2.51,19.34a5.6,5.6,0,0,0,4.81,6.28h0a5.6,5.6,0,0,0,6.28-4.81v0l3.64-27.86,27.94-16.17v32.29l-22.32,17.06a5.62,5.62,0,0,0-1.44,7.26,6,6,0,0,0,.41.62,5.6,5.6,0,0,0,7.84,1h0l15.5-11.83v22.21l-22.3,17.06a5.58,5.58,0,0,0-1.45,7.27c.11.2.25.4.38.6a5.65,5.65,0,0,0,7.89,1.05L309.55,367v20.43a5.61,5.61,0,0,0,11.22,0V367l15.49,11.85a5.61,5.61,0,1,0,7.14-8.65,3.92,3.92,0,0,0-.32-.25l-22.31-17.08V330.67l15.51,11.83a5.61,5.61,0,0,0,6.81-8.91l-22.3-17.06v-32.3l27.95,16.14,3.64,27.86a5.45,5.45,0,0,0,.69,2.07,5.6,5.6,0,0,0,10.42-3.51L361,307.5l19.22,11.1,3.63,27.86a5.47,5.47,0,0,0,.72,2A5.62,5.62,0,0,0,395,345l-2.53-19.34,17.7,10.22a5.61,5.61,0,1,0,5.62-9.72Z" transform="translate(0.01 0)"/><path class="cls-2" d="M315.17,394.54a6.87,6.87,0,0,1-1.85-.25,7.1,7.1,0,0,1-5.27-6.85V370.05L295,380a7.18,7.18,0,0,1-10-1.32l-.16-.24a6.42,6.42,0,0,1-.34-.56,7.06,7.06,0,0,1,1.86-9.19l21.7-16.6V333.69l-13.13,10a7.08,7.08,0,0,1-9.91-1.3,7.67,7.67,0,0,1-.52-.79,7.15,7.15,0,0,1,1.82-9.2l21.74-16.61V286.86L283,301.36l-3.54,27.12a7.11,7.11,0,1,1-14.1-1.84l2.12-16.32-15.92,9.18L248,346.61a7.11,7.11,0,1,1-14.1-1.83l2.14-16.31L221,337.17a7.11,7.11,0,0,1-7.12-12.32l15.07-8.7-15.2-6.33a7,7,0,0,1-3.43-3,7.09,7.09,0,0,1,8.88-10.12l25.23,10.49L260.38,298l-15.2-6.34a6.92,6.92,0,0,1-3.43-3,7.13,7.13,0,0,1-.42-6.33,7.11,7.11,0,0,1,9.3-3.79L275.91,289,301,274.54l-25.11-14.47-25.24,10.5a7.15,7.15,0,0,1-8.88-3c-.15-.29-.27-.53-.39-.79a7.16,7.16,0,0,1,3.77-9.34l15.21-6.32-15.94-9.21-25.31,10.51a7.13,7.13,0,1,1-5.44-13.19l15.19-6.32L213.8,224.2a6.81,6.81,0,0,1-2.55-2.56,7,7,0,0,1,0-7.1A7.14,7.14,0,0,1,221,212l15.07,8.7-2.11-16.35A7.12,7.12,0,0,1,248,202.46l3.5,27.11,15.9,9.23-2.13-16.33a3.34,3.34,0,0,1-.05-.4,7.11,7.11,0,0,1,11.59-6.19,7,7,0,0,1,2.56,4.8l3.53,27.08,25.11,14.47V233.29l-21.72-16.63a7.11,7.11,0,0,1-1.34-10,7.12,7.12,0,0,1,10-1.33l13.1,10V197l-21.7-16.62a6.53,6.53,0,0,1-1.86-2.11A7.11,7.11,0,0,1,295,169.06l13.09,10V161.66a7.11,7.11,0,0,1,14.22,0v17.39l13.08-10a7.12,7.12,0,0,1,11.22,6.45,7.08,7.08,0,0,1-2.54,4.82L322.29,197v18.43l13.07-10A7.11,7.11,0,1,1,344,216.69l-21.76,16.55v29l25.11-14.47,3.52-27.1a4.07,4.07,0,0,1,.06-.41,7.11,7.11,0,1,1,14,2.29l-2.11,16.27,15.95-9.21,3.52-27a7.11,7.11,0,0,1,14.11,1.82l-2.12,16.34L409.4,212l.36-.2a7.11,7.11,0,0,1,6.71,12.53l-15,8.68,15.2,6.33a7.11,7.11,0,1,1-5.47,13.12l-25.24-10.5L370,251.12l15.2,6.33.45.18a7.13,7.13,0,0,1,3.47,9.44,7.11,7.11,0,0,1-9.44,3.47l-25.2-10.47-25.11,14.48L354.46,289l25.19-10.49.33-.14a7.12,7.12,0,0,1,9.2,4.08,7.13,7.13,0,0,1-4.09,9.19L369.93,298l16,9.2,25.26-10.49a7.11,7.11,0,1,1,5.46,13.12l-15.2,6.33,14.5,8.37h0l.58.33a7.11,7.11,0,0,1-7.12,12.32l-15.07-8.7,2.14,16.33a7.12,7.12,0,0,1-13.23,4.48,6.86,6.86,0,0,1-.91-2.58l-3.53-27.14-15.95-9.21L365,326.6a7.1,7.1,0,0,1-8.93,7.78,7,7,0,0,1-4.28-3.34,6.72,6.72,0,0,1-.88-2.63l-3.54-27.11-25.06-14.47v29L344,332.4a7.11,7.11,0,0,1-8.59,11.32l-13.14-10v18.42L344,368.75c.1.07.24.17.37.28a7.11,7.11,0,1,1-9.06,11l-13-10v17.41a7.16,7.16,0,0,1-3.56,6.15A7.07,7.07,0,0,1,315.17,394.54ZM311.05,364v23.47a4.05,4.05,0,0,0,.55,2,4.11,4.11,0,0,0,7.67-2V364l17.9,13.7a4.12,4.12,0,0,0,5.83-.52,4.11,4.11,0,0,0-.55-5.78l-.24-.19L319.27,353.6v-26l17.92,13.67a4.11,4.11,0,0,0,4.95-6.56l-22.85-17.48V281.63l30.84,17.81,3.74,28.6a3.8,3.8,0,0,0,.5,1.51A4.1,4.1,0,0,0,362,327l-2.9-22.31,22.49,13,3.73,28.6a3.77,3.77,0,0,0,.52,1.46,4.12,4.12,0,0,0,7.66-2.58l-2.92-22.35,20.33,11.74a4.12,4.12,0,0,0,5.62-1.5,4.12,4.12,0,0,0-1.24-5.45l-.29-.16-20.34-11.74,20.8-8.66a4.11,4.11,0,0,0-3.15-7.59l-26.63,11.07-22.51-13,20.8-8.65a4.14,4.14,0,0,0,2.41-5.33,4.12,4.12,0,0,0-5.32-2.36l-.21.09-26.61,11.08-30.89-17.81,30.89-17.82,26.63,11.06a4.11,4.11,0,1,0,3.5-7.43,2.52,2.52,0,0,0-.29-.12l-20.86-8.68,22.49-13,26.62,11.08a4.12,4.12,0,0,0,5.37-2.22,4.14,4.14,0,0,0,0-3.15,4.08,4.08,0,0,0-2.23-2.22l-20.8-8.66L415,221.66a4.11,4.11,0,1,0-3.84-7.27l-.23.13-20.38,11.8,2.9-22.36a4.11,4.11,0,1,0-8.15-1.06l-3.72,28.53-22.49,13,2.9-22.34a4.11,4.11,0,1,0-8.1-1.38,2.51,2.51,0,0,0,0,.27l-3.72,28.62L319.25,267.4V231.76l22.94-17.45a4.12,4.12,0,0,0-5-6.53l-17.89,13.69v-26L342.18,178a4.07,4.07,0,0,0,1.42-2.75,4.11,4.11,0,0,0-6.46-3.76l-17.85,13.67V161.66a4.11,4.11,0,0,0-8.22,0v23.48l-17.91-13.7a4.08,4.08,0,0,0-3-.8,4,4,0,0,0-2.72,1.58,4.09,4.09,0,0,0-.3,4.53,3.65,3.65,0,0,0,1,1.19l22.9,17.54v26l-17.92-13.72a4.11,4.11,0,0,0-5.75.78,4.06,4.06,0,0,0-.81,3,4.11,4.11,0,0,0,1.58,2.72l22.9,17.53v35.62l-30.89-17.81L276.43,221a4.11,4.11,0,1,0-8.18.75,2.48,2.48,0,0,0,0,.27l2.92,22.41-22.44-13-3.7-28.58a4.06,4.06,0,0,0-1.58-2.72,4.1,4.1,0,0,0-5.76.77,4,4,0,0,0-.81,3l2.87,22.38-20.31-11.74a4.14,4.14,0,0,0-5.63,1.48,4.07,4.07,0,0,0,0,4.08,3.91,3.91,0,0,0,1.45,1.46l20.35,11.75L214.84,242a4.13,4.13,0,1,0,3.14,7.63l26.68-11.07,22.48,13-20.8,8.65a4.13,4.13,0,0,0-2.19,5.37c.07.16.17.36.27.54a4.09,4.09,0,0,0,5.09,1.67l26.62-11.06L307,274.54l-30.89,17.82L249.47,281.3a4.08,4.08,0,0,0-5.37,2.18,4.13,4.13,0,0,0,.24,3.67,4,4,0,0,0,2,1.73l20.82,8.67-22.48,13-26.61-11.07a4.11,4.11,0,0,0-3.15,7.6l20.82,8.66-20.33,11.74a4.11,4.11,0,0,0,4.12,7.12l20.33-11.74-2.92,22.34a4.1,4.1,0,0,0,8.14,1.05l3.72-28.58,22.46-13L268.34,327a4.06,4.06,0,0,0,.8,3,4.12,4.12,0,0,0,7.34-1.94l3.74-28.62,30.83-17.84v35.63L288.14,334.8a4.13,4.13,0,0,0-1.05,5.32,4.76,4.76,0,0,0,.31.47,4.09,4.09,0,0,0,5.67.76l18-13.72v26l-22.89,17.51a4.09,4.09,0,0,0-1.07,5.32l.25.39.06.09a4.14,4.14,0,0,0,5.76.73Z" transform="translate(0.01 0)"/><path class="cls-2" d="M140.83,72.32a266.29,266.29,0,0,1,347.72-.06l4.41-5.9a274.07,274.07,0,0,0-356.52.06Z" transform="translate(0.01 0)"/><path class="cls-2" d="M140.75,73.05l-5-6.71.35-.3A274.76,274.76,0,0,1,314.69,0h.05A274.78,274.78,0,0,1,493.29,66l.35.3-5,6.71-.41-.35c-98.94-85.26-248.15-85.23-347.06.06Zm-3.63-6.55,3.79,5.09A266.91,266.91,0,0,1,314.68,7.2h0A266.89,266.89,0,0,1,488.47,71.53l3.81-5.09C389.29-21.42,240.08-21.39,137.12,66.5Z" transform="translate(0.01 0)"/><path class="cls-2" d="M588.74,275.65v-2.37l-.88,1.19Z" transform="translate(0.01 0)"/><polygon class="cls-2" points="589.25 277.16 587.24 274.47 589.25 271.76 589.25 277.16"/><path class="cls-2" d="M488.6,476.77a266.31,266.31,0,0,1-347.83-.06l-4.41,5.9a274.1,274.1,0,0,0,356.65.06Z" transform="translate(0.01 0)"/><path class="cls-2" d="M314.72,549.08h-.05A274.78,274.78,0,0,1,136,483l-.35-.3,5-6.71.41.35c98.94,85.36,248.2,85.38,347.17.06l.41-.35,5,6.7-.36.31A274.77,274.77,0,0,1,314.72,549.08ZM137,482.53c103,88,252.26,88,355.29.06l-3.81-5.09a267,267,0,0,1-173.8,64.37h-.05a266.9,266.9,0,0,1-173.82-64.43Z" transform="translate(0.01 0)"/><path class="cls-2" d="M40.69,273.44v2.1l.77-1Z" transform="translate(0.01 0)"/><polygon class="cls-2" points="40.2 277.01 40.2 271.85 42.09 274.55 40.2 277.01"/><path class="cls-2" d="M477.27,156.32c2.82-2.14,18.67-18.58,22.24-16.95-.83,8.36-6.86,18.38-10.88,25.65a89.5,89.5,0,0,1-8.08,12.23c-2.43,3.06-9.63,7.64-10.26,11.38-1.62,9.7,9.31,2.23,12,.23,4.58-3.46,16.09-16.62,22.1-16.92,4.42-.21,2.33,1.56,1.74,5.31-1.32,8.22-17.52,26.94-25.23,34.16s-.61,9.41,6.5,5.9c4.36-2.17,24.43-17.14,29.26-14.26,4.56,2.71-26.58,29.7-27.74,32-7.33,14.48,22.27-2.21,25.72-3.89,3.12-1.51,8.51-5.76,10.63-1.62,1.63,3.19-7.55,14.19-9.38,16.47-3.71,4.6-29,19.52-17.47,23.85,8.52,3.21,18.92-9.69,27.77-8.75,13.11,1.39-9.51,19.86-13.64,22.18-3,1.69-17.3,10.19-7.46,11.73,7.69,1.21,14.16-6.14,22.84-2.65,7.22,2.9,10.44,11.18,4.28,17-3.21,3-8.48,3.34-12.58,3.4-3.69.06-13.42-3.61-16.15-1-9,8.65,30.9,13,34.12,15.31,5.14,3.72,2.09,7.25-2.83,10.08-6.72,3.85-15.29,3.15-22.47,1.22-3-.81-12.42-6.53-15.37-3.54-6.41,6.48,8.47,9.57,11.79,11.47,7.44,4.3,20.81,19.74,4.79,23.08-7.81,1.63-14.07-4.55-18.94-9.47-2.27-2.28-8.56-10.93-11.66-4-2,4.37,6.12,9.72,8.46,12.54,3.48,4.17,7.95,10.62,9.27,16.07,3.88,16-10.65,6.68-16.89,1.4-5.09-4.29-8.55-9.36-12.89-14.1-2.29-2.51-7.4-8.62-9.46-1.62-1.78,6,24.51,35.33,16.34,39.76-7.69,4.16-26.39-23.38-29.46-28.2-10.12-15.89-12.19-34-7.23-52.16,2.41-8.84,9.72-16.66,13.07-25.34a76.87,76.87,0,0,0,5.49-28.3c-.16-20.21-13.82-32.88-18.57-51.43-4.45-17.33,1-34.42,10.94-48.79C458.49,166.33,468.16,163.21,477.27,156.32Z" transform="translate(0.01 0)"/><path class="cls-2" d="M476.05,411.91c-10.08,0-27-26.08-29.05-29.29-10.07-15.81-12.63-34.26-7.42-53.37,1.39-5.08,4.32-9.82,7.15-14.41a69.65,69.65,0,0,0,6-11.07A75.1,75.1,0,0,0,458.09,276c-.09-11.61-4.75-20.59-9.68-30.1-3.38-6.51-6.87-13.24-8.84-21-5.25-20.42,3.17-38.47,11.16-50,4.53-6.55,10.39-10.1,16.6-13.86a104.26,104.26,0,0,0,9-5.93c.62-.46,2.12-1.86,3.85-3.49,10.81-10.13,16.86-15,19.92-13.62l1,.44-.11,1.07c-.78,7.84-5.79,16.8-9.81,24l-1.25,2.24a91.18,91.18,0,0,1-8.21,12.4,35.29,35.29,0,0,1-4,3.88c-2.51,2.19-5.62,4.92-5.94,6.82s0,2.79.27,3c1,.61,4.77-.81,9.36-4.21,1.24-.95,3.11-2.72,5.27-4.78,5.71-5.43,12.82-12.2,17.64-12.44,1.51-.07,3,0,3.84,1.06s.45,2.32,0,3.64a18.6,18.6,0,0,0-.58,2.34c-1.46,9.07-19,28.73-25.68,35-2.9,2.71-3,4.12-2.8,4.4.49.71,3.63,1,7.61-.94,1-.49,3.09-1.85,5.51-3.41,11.35-7.35,21.07-13.23,25.18-10.79a2.42,2.42,0,0,1,1.17,1.83c.41,3.59-7,11.4-21.66,25.49-3.09,3-6.29,6-6.71,6.69-1.17,2.32-1,3.26-.88,3.4.55.54,3.82,1.54,22.86-8.44.81-.43,1.42-.75,1.77-.92.53-.25,1.15-.61,1.81-1,2.46-1.4,5.51-3.13,8.09-2.36a4.42,4.42,0,0,1,2.72,2.39c1.39,2.71-1.34,8-9.14,17.6l-.4.49a49.43,49.43,0,0,1-6.62,5.66c-5.23,4.07-14,10.89-13.49,14.16.1.66.77,1.23,2,1.69,3.91,1.47,8.6-1.2,13.55-4,4.56-2.61,9.28-5.29,13.85-4.81,3.84.41,5,2.21,5.29,3.64,1.41,6.85-15.89,20-18.36,21.34-6.83,3.85-10.26,7.23-10.1,8.19h0s.31.46,2.14.75c3,.47,5.87-.55,8.92-1.63,4.14-1.46,8.83-3.11,14.25-.93a13.23,13.23,0,0,1,8.29,9.43,10.78,10.78,0,0,1-3.54,10c-3.46,3.23-8.81,3.74-13.59,3.81a31.31,31.31,0,0,1-5.65-.87c-3.08-.64-8.25-1.73-9.48-.55-.67.65-.95,1.2-.83,1.64,1,3.6,17,7,24.68,8.63,6,1.29,9,1.94,10.1,2.74,2.29,1.65,3.39,3.48,3.29,5.44-.13,2.48-2.17,4.82-6.24,7.16-7.58,4.34-17,3.14-23.61,1.37a28.32,28.32,0,0,1-3.63-1.47c-2.87-1.28-8.83-3.94-10.28-2.47-.89.9-1.27,1.68-1.12,2.31.47,2.15,5.77,4.11,8.93,5.29a26.83,26.83,0,0,1,3.65,1.52c5.27,3,14.1,11.93,13,18.84-.39,2.46-2.21,5.67-8.63,7-8.73,1.82-15.43-4.95-20.32-9.89-.31-.32-.71-.76-1.17-1.27-1.51-1.69-4.65-5.18-6.47-4.9-.57.09-1.11.67-1.58,1.73-1.07,2.3,2.87,5.91,5.47,8.29a28.42,28.42,0,0,1,2.75,2.72c2.35,2.81,8,10.06,9.58,16.68,1.29,5.33.77,8.63-1.59,10.09-5.08,3.14-15.66-5.44-17.73-7.19a73.19,73.19,0,0,1-8.9-9.44c-1.32-1.59-2.69-3.23-4.13-4.8l-.35-.38c-1.06-1.18-3.89-4.28-5.22-4-.48.1-1,.91-1.34,2.15-.55,1.85,4.21,9.4,7.68,14.91,5.85,9.29,11.39,18.07,10.11,22.95a4.34,4.34,0,0,1-2.18,2.8A4.87,4.87,0,0,1,476.05,411.91Zm21.71-270.86c-3.6,1.65-12.38,9.87-15.5,12.8-1.94,1.82-3.34,3.13-4.08,3.7a105.4,105.4,0,0,1-9.3,6.09c-5.92,3.59-11.52,7-15.69,13-7.63,11-15.68,28.24-10.72,47.57,1.89,7.39,5.3,14,8.6,20.32,4.88,9.4,9.92,19.13,10,31.47a78.19,78.19,0,0,1-5.6,28.87,71.21,71.21,0,0,1-6.21,11.55c-2.84,4.61-5.53,9-6.8,13.62-5,18.27-2.55,35.89,7,51,8.45,13.27,22.7,30.28,27.48,27.69a1.36,1.36,0,0,0,.7-.92c1-3.62-5-13-9.75-20.59-5.72-9.08-8.91-14.36-8-17.36.72-2.43,1.91-3.85,3.55-4.23,3.05-.7,6.1,2.67,8.12,4.9l.34.37c1.48,1.62,2.87,3.29,4.22,4.9a68.84,68.84,0,0,0,8.53,9.06c5.92,5,12.3,8.12,14.21,6.94,1-.64,1.13-3.2.25-6.84-1.49-6.17-7.24-13.39-9-15.46h0a30.54,30.54,0,0,0-2.47-2.42c-3.44-3.15-8.15-7.47-6.17-11.74.91-2,2.2-3.2,3.85-3.46,3.44-.54,6.88,3.32,9.16,5.87.42.46.78.87,1.07,1.16,4.41,4.46,10.44,10.55,17.57,9.06,3.82-.79,5.93-2.32,6.29-4.54.77-4.84-6.34-12.78-11.52-15.77a27.46,27.46,0,0,0-3.2-1.31c-4.45-1.65-10-3.71-10.82-7.45-.38-1.7.27-3.4,1.91-5.06,2.91-3,8.86-.3,13.64,1.83a29.58,29.58,0,0,0,3.19,1.31c6,1.63,14.65,2.76,21.33-1.07,4-2.32,4.7-3.95,4.74-4.72s-.64-1.83-2-2.85c-.74-.48-5.11-1.41-9-2.23-14.4-3.07-25.53-5.8-26.94-10.75-.31-1.09-.28-2.78,1.63-4.62,2.38-2.28,7.36-1.23,12.18-.22a27.58,27.58,0,0,0,5,.8c4.2-.06,8.87-.47,11.58-3a7.9,7.9,0,0,0,2.65-7.3,10.26,10.26,0,0,0-6.47-7.21c-4.37-1.75-8.14-.43-12.13,1-3.27,1.16-6.65,2.35-10.38,1.76-2.77-.43-4.33-1.5-4.63-3.17-.65-3.62,5.94-8.17,11.58-11.35,4.14-2.32,17.72-14.12,16.9-18.11-.18-.83-1.55-1.15-2.68-1.27-3.61-.38-7.9,2.07-12,4.43-5.34,3.05-10.86,6.21-16.1,4.23-2.32-.87-3.63-2.23-3.91-4-.71-4.64,5.9-10.2,14.61-17a50.84,50.84,0,0,0,6.13-5.17l.41-.5c9.56-11.8,8.91-14.12,8.8-14.35a1.48,1.48,0,0,0-.91-.88c-1.35-.4-3.89,1-5.75,2.1-.7.4-1.37.77-2,1.07l-1.69.87C497.66,241.75,490,244,487.25,241.3c-2.12-2.08-.28-5.73.33-6.93.42-.82,2.12-2.49,7.29-7.45,6.06-5.82,20-19.21,20.72-22.71-3.41-1-16.63,7.57-21.71,10.86-2.6,1.68-4.66,3-5.81,3.58-4.92,2.43-9.71,2.41-11.41-.05-1-1.46-1.27-4.08,3.22-8.28,7.75-7.27,23.53-25.61,24.77-33.31a18.85,18.85,0,0,1,.68-2.74c.07-.26.17-.57.23-.83a7.76,7.76,0,0,0-1.1,0c-3.71.18-10.94,7.06-15.72,11.61-2.23,2.12-4.15,3.95-5.55,5-3.35,2.49-9.45,6.36-12.71,4.37-1.61-1-2.17-3-1.67-6.05s3.76-5.81,6.92-8.58a32.47,32.47,0,0,0,3.65-3.48,89.55,89.55,0,0,0,7.94-12l1.25-2.25C492.14,155.69,496.52,147.87,497.76,141.05Z" transform="translate(0.01 0)"/><path class="cls-2" d="M528.48,106.33c2.43-2.18,15.16-12.13,13.2-2.88-3,14.39-11,28.18-19.46,40-4,5.69-8.32,11.74-13.23,16.74-4.07,4.12-7.62,4.42-12.7,7.69,7.17-13.49,9-28,15.92-40.62A80.54,80.54,0,0,1,528.48,106.33Z" transform="translate(0.01 0)"/><path class="cls-2" d="M548,138.09c5.63-1.92-1.18,16.18-4.11,21.48-7,12.62-15.77,24.09-24.58,35.43-5-1.65-10.62,2.15-14.92,4.37A94.83,94.83,0,0,0,513.31,181c1.08-3.09,1.81-12.34.84-13.74C515.2,166.39,542.55,139.94,548,138.09Z" transform="translate(0.01 0)"/><path class="cls-2" d="M560.55,176.5c6.2-3.12,8.46-.21,5.35,6.37-5.45,11.54-14.29,21.09-23.83,29.41-3.84,3.34-8.73,8.52-13.14,8.86-7,.53-9.59-1-16.89,2.5,4.66-5.5,15.14-22.56,19.65-25.88C535.19,195.21,554.12,179.76,560.55,176.5Z" transform="translate(0.01 0)"/><path class="cls-2" d="M567.43,213.28c12.7-6.39,14.89,3.74,9.1,13.41-6.06,10.14-16.17,17.11-26.28,22.77-4.51,2.53-10.78,6.73-15.19,6.12-6.91-1-8.28-3.27-16.2-.64,3.42-3.74,12.13-20.73,14.54-22.27C544.21,225.79,556,219,567.43,213.28Z" transform="translate(0.01 0)"/><path class="cls-2" d="M552.22,260.94c4.18-1.29,30.77-10.46,30.9-1.15.17,10.94-12.22,20.86-20.33,26.4-3.36,2.3-16,11.21-20.41,9.76-1.16-.39-3.88-5.88-5.11-7a21.82,21.82,0,0,0-11.72-5.26c3.88-3.4,7.87-7.47,10.31-12.08,2.66-5,.78-4.33,6.19-7.16C545.16,262.84,548.91,262,552.22,260.94Z" transform="translate(0.01 0)"/><path class="cls-2" d="M497.33,100.29a1.29,1.29,0,0,1,2.43.66c-.5,8.34-1.74,22.67-8.49,32.18-3.7,5.21-14.91,14.73-22.13,20.79a.85.85,0,0,1-1.2-.1.84.84,0,0,1-.05-1C478.93,136.05,488.15,118.1,497.33,100.29Z" transform="translate(0.01 0)"/><path class="cls-2" d="M588.05,309.07c5.31,7.66-10.14,11.64-15,13.34-6.09,2.13-22.06,5.26-27.28,1.11-2.47-2-11.1-5.27-12.78-5.73a22.08,22.08,0,0,0,6.82-5.75c.83-1.1,2.82-7.55,3.47-8.05,2.74-2.15,13.6.64,16.83,1C566.09,305.65,584.13,303.44,588.05,309.07Z" transform="translate(0.01 0)"/><path class="cls-2" d="M587.07,356.81c10.21,10.74-4.79,13.87-14.06,14.36a135.35,135.35,0,0,1-44.69-5.46c2-6.55-1.18-13.15-5.51-18a35,35,0,0,0,16.66-4.16c1.37-.79,5.92-5.91,7-6.22,2.16-.63,10,2.68,12.07,3.4C568.1,344.14,579.84,349.2,587.07,356.81Z" transform="translate(0.01 0)"/><path class="cls-2" d="M542.46,382.28c6.36,4.43,22,16,18.24,25.48-3.62,9.14-21.6.95-27.35-1.33-3.53-1.4-23.5-7.78-25.09-11.51-.63-1.48.9-6.51.58-8.78a33.37,33.37,0,0,0-3.13-9.37,21.59,21.59,0,0,0,11.31-.19c1-.31,5.5-3.43,6.66-3.5C529.34,372.8,538,379.17,542.46,382.28Z" transform="translate(0.01 0)"/><path class="cls-2" d="M501.85,402.64c4.74,3.08,20.39,30,15.59,33.3-5.56,3.83-31.58-17.45-32.68-22-.3-1.24.13-14.8-1.35-18.2a36.49,36.49,0,0,0,8.53,5.09C495.2,402,499.48,401.1,501.85,402.64Z" transform="translate(0.01 0)"/><path class="cls-2" d="M468.59,155.62h-.19a2.3,2.3,0,0,1-1.6-.82,2.36,2.36,0,0,1-.16-2.83c11-16.74,20.33-34.85,29.36-52.36a2.75,2.75,0,0,1,1.64-1.37,2.79,2.79,0,0,1,3.62,2.79c-.63,10.5-2.2,23.72-8.77,33-3.53,5-13.3,13.44-22.39,21.07A2.3,2.3,0,0,1,468.59,155.62Zm-.42-2.85h0Zm30-50.89c-8.27,16-16.81,32.55-26.7,48.09,6.16-5.22,15.41-13.29,18.55-17.71C496,123.91,497.55,111.78,498.2,101.88Z" transform="translate(0.01 0)"/><path class="cls-2" d="M566.83,372.81a136.6,136.6,0,0,1-38.92-5.66l-1.44-.43.43-1.45c2.2-7.23-2.91-14-5.21-16.54l-2.25-2.51h3.46a33.73,33.73,0,0,0,15.86-4,34,34,0,0,0,2.94-2.72c2.47-2.43,3.49-3.37,4.36-3.62,1.87-.55,5.6.62,11.4,2.84.67.25,1.21.46,1.57.58,13.71,4.86,23.25,10.23,29.15,16.45,3.39,3.56,4.54,6.8,3.42,9.6-2.31,5.82-13.7,7-18.49,7.29Q570,372.8,566.83,372.81Zm-36.69-8.14a133.46,133.46,0,0,0,42.82,5c8.5-.45,14.73-2.57,15.86-5.4.8-2-1.09-4.61-2.82-6.43-5.57-5.86-14.71-11-28-15.68-.37-.13-.95-.34-1.65-.61-5.3-2-8.47-2.95-9.44-2.77a34.71,34.71,0,0,0-3.15,2.89,24.2,24.2,0,0,1-3.58,3.2,36.8,36.8,0,0,1-14.36,4.24C529.6,354.2,531.12,359.69,530.14,364.67Z" transform="translate(0.01 0)"/><path class="cls-2" d="M554.58,327c-4,0-7.57-.62-9.75-2.36h0c-2.21-1.79-10.55-5-12.24-5.45l-3.59-1,3.27-1.78a20.4,20.4,0,0,0,6.36-5.36,33.62,33.62,0,0,0,1.52-3.7c1.23-3.26,1.61-4.14,2.22-4.61,2.43-1.91,8.13-1,14.78.17,1.31.24,2.44.45,3.13.53,1.48.16,3.84.14,6.56.11,8.5-.09,19.08-.2,22.44,4.6a6.21,6.21,0,0,1,1.07,5.72c-1.67,5-10.06,7.69-15.08,9.32l-1.73.58A67.45,67.45,0,0,1,554.58,327Zm-7.87-4.7c4.36,3.48,19.14,1,25.85-1.36l1.78-.59c3.89-1.27,12-3.9,13.17-7.42a3.41,3.41,0,0,0-.69-3.06c-2.45-3.49-13-3.38-20-3.31a65.06,65.06,0,0,1-6.92-.13c-.8-.09-2-.31-3.35-.56-3.16-.58-10.46-1.92-12.27-.83-.3.53-.94,2.22-1.37,3.37a22.77,22.77,0,0,1-2,4.48,23.34,23.34,0,0,1-4.6,4.45C539.79,318.65,544.79,320.78,546.71,322.33Zm-2.5-17.19h0Z" transform="translate(0.01 0)"/><path class="cls-2" d="M543.5,297.61a4.92,4.92,0,0,1-1.59-.24h0c-1.06-.36-1.91-1.58-3.72-4.49a21.45,21.45,0,0,0-1.92-2.82,20.24,20.24,0,0,0-10.89-4.88l-3.33-.41,2.52-2.21c4.84-4.24,8-7.94,10-11.65a29.08,29.08,0,0,0,1.35-2.89c1-2.37,1.43-2.79,5.47-4.9a44.2,44.2,0,0,1,8.26-3l2.13-.62,1.1-.35c10.24-3.28,24.47-7.2,29.67-3.46a4.88,4.88,0,0,1,2.07,4.07c.14,8.75-6.92,18.05-21,27.66l-.23.16C553.55,294.43,547.27,297.61,543.5,297.61Zm-.53-3.05c1.25.29,5.44-.21,18.68-9.43l.24-.17c13-8.88,19.81-17.57,19.69-25.15a1.91,1.91,0,0,0-.82-1.68c-2.09-1.5-8.47-2-27,3.89l-1.13.35-2.18.65a41.82,41.82,0,0,0-7.69,2.76c-3.45,1.8-3.45,1.8-4.09,3.38a31.65,31.65,0,0,1-1.48,3.15,40.91,40.91,0,0,1-8.4,10.47,23.42,23.42,0,0,1,9.48,5,18.45,18.45,0,0,1,2.47,3.47A24,24,0,0,0,543,294.56Zm.07.05Z" transform="translate(0.01 0)"/><path class="cls-2" d="M513.87,258.18l3.88-4.25c1.52-1.66,4.3-6.36,7-10.91,4.36-7.38,6.42-10.7,7.84-11.61,11.15-7.1,22.95-13.83,34.13-19.47,7.49-3.77,11-1.74,12.46-.19,2.91,3.13,2.36,9.45-1.39,15.71-6.6,11-17.81,18.25-26.84,23.31l-2,1.16c-4.37,2.55-9.81,5.73-14.1,5.14h0a44.58,44.58,0,0,1-5.07-1.07c-3.27-.84-5.24-1.35-10.44.37Zm21.4-4.09c3.27.46,8.2-2.43,12.17-4.75l2-1.19c8.71-4.87,19.5-11.8,25.73-22.23,3-4.95,3.71-10,1.77-12.13-1.47-1.58-4.72-1.28-8.91.83-11.09,5.6-22.8,12.28-33.86,19.32-1,.69-4.41,6.42-6.88,10.6-1.72,2.91-3.38,5.71-4.81,7.91a17,17,0,0,1,8,.64A40.16,40.16,0,0,0,535.27,254.09Z" transform="translate(0.01 0)"/><path class="cls-2" d="M506.39,228l4.55-5.36c1.73-2.05,4.36-5.83,7.14-9.84,4.8-6.92,9.77-14.08,12.76-16.28.77-.57,2.4-1.85,4.45-3.46,7.3-5.74,19.51-15.35,24.63-17.93,4.41-2.22,6.64-1.42,7.73-.35s2.07,3.58-.35,8.7c-4.82,10.2-12.51,19.7-24.2,29.9-.64.56-1.31,1.16-2,1.78-3.68,3.34-7.84,7.12-12,7.45h0c-2.12.16-3.86.13-5.39.11a20.41,20.41,0,0,0-11,2.24Zm58.36-51.28a8.33,8.33,0,0,0-3.49,1.09c-4.85,2.44-17.38,12.31-24.11,17.6-2.08,1.64-3.72,2.93-4.53,3.53-2.59,1.9-7.85,9.48-12.08,15.58-1.44,2.07-2.83,4.08-4.1,5.84a25.3,25.3,0,0,1,7.29-.64c1.54,0,3.14,0,5.13-.11,3.15-.24,7.08-3.8,10.23-6.67.7-.64,1.38-1.25,2-1.82,11.36-9.92,18.82-19.11,23.45-28.92,1.6-3.37,1.34-4.92,1-5.27A1.23,1.23,0,0,0,564.75,176.76Z" transform="translate(0.01 0)"/><path class="cls-2" d="M500.2,203.22l2.91-4.65a93.2,93.2,0,0,0,8.79-18.11c1-3,1.56-11.13,1-12.46l-.78-1.13,1.1-.8c.15-.13,1.08-1,2.17-2,18.87-17.78,28.78-26.22,32.14-27.37a2.83,2.83,0,0,1,3.3.72c3.33,4-4.6,21.09-5.61,22.91-6.73,12.2-14.82,22.9-24.71,35.62l-.65.84-1-.34c-3.66-1.2-8,1.15-11.8,3.23-.68.37-1.33.73-2,1Zm15.66-35.54c.7,3.53-.31,11.41-1.13,13.78a97.38,97.38,0,0,1-6.36,14.09c3.22-1.62,6.83-3,10.35-2.25,9.53-12.28,17.36-22.69,23.85-34.45,3.09-5.59,6.85-17.13,6-19.37l-.11,0c-2.81,1-13.26,10-31.06,26.72Z" transform="translate(0.01 0)"/><path class="cls-2" d="M492.27,172.29l2.7-5.07c3.51-6.61,5.76-13.59,7.93-20.34s4.46-13.85,8-20.3a81.85,81.85,0,0,1,16.57-21.38c.43-.39,10.23-9.1,14.34-6.72,1.45.84,1.91,2.61,1.35,5.25-2.58,12.37-9,25.64-19.71,40.56-3.87,5.52-8.26,11.78-13.38,17h0a24.54,24.54,0,0,1-7.81,5.15,42,42,0,0,0-5.15,2.75ZM540,101c-1.71,0-7.13,3.42-10.47,6.42a78.6,78.6,0,0,0-16,20.59c-3.4,6.21-5.53,12.81-7.78,19.79a153.11,153.11,0,0,1-6,16.5l1.23-.59a21.37,21.37,0,0,0,7-4.53c4.95-5,9.26-11.19,13.07-16.62,10.44-14.59,16.73-27.49,19.22-39.45.35-1.62.07-2,.07-2A.81.81,0,0,0,540,101Z" transform="translate(0.01 0)"/><path class="cls-2" d="M515.7,437.9a12.26,12.26,0,0,1-4.25-.95c-9.8-3.75-27.08-18.26-28.15-22.66a29.88,29.88,0,0,1-.19-4.31c-.06-4-.17-11.56-1.07-13.64l-2.42-5.54,4.73,3.77a35.08,35.08,0,0,0,8.18,4.88,16,16,0,0,0,4.39.67c2,.13,4.14.26,5.75,1.3,4.54,2.94,17.05,24,17.17,32a4.12,4.12,0,0,1-1.55,3.74h0A4.46,4.46,0,0,1,515.7,437.9Zm-30.06-38.71c.32,2.9.41,6.73.47,10.75,0,1.55.05,3.32.11,3.68.67,2.74,16.79,16.89,26.3,20.53,2.31.88,3.62.87,4.07.55.09-.06.26-.4.25-1.23-.1-6.83-12-27.09-15.8-29.53-1-.62-2.59-.72-4.31-.83a18.46,18.46,0,0,1-5.32-.88A38.65,38.65,0,0,1,485.64,399.19Z" transform="translate(0.01 0)"/><path class="cls-2" d="M553,413.49c-6.3,0-14.07-3.18-18.73-5.08l-1.45-.59c-.63-.24-1.77-.65-3.23-1.16-13-4.62-21.39-8.1-22.69-11.15-.48-1.12-.27-2.72.12-5.23a18.46,18.46,0,0,0,.36-3.91,31.91,31.91,0,0,0-3-8.92l-1.49-2.95,3.2.82a20.18,20.18,0,0,0,10.52-.18c.26-.1,1.34-.74,2.13-1.22,2.59-1.54,3.91-2.28,4.86-2.34,5.86-.28,14,5.45,18.88,8.87l.85.6c15.38,10.71,21.7,19.89,18.77,27.26a7.51,7.51,0,0,1-4.19,4.3A12.5,12.5,0,0,1,553,413.49Zm-44.71-34.72a35.06,35.06,0,0,1,2.05,7.11v.05a19,19,0,0,1-.36,4.8,15.47,15.47,0,0,0-.32,3.62c.68,1.61,7.73,4.81,20.92,9.48,1.51.53,2.69.95,3.33,1.21l1.49.6c5.17,2.11,15.94,6.51,21.33,4.21a4.58,4.58,0,0,0,2.59-2.64c2.27-5.75-4-14.16-17.71-23.7l-.86-.6c-4.26-3-12.2-8.57-17-8.33a29.63,29.63,0,0,0-3.47,1.92,16.18,16.18,0,0,1-2.82,1.51A23.25,23.25,0,0,1,508.27,378.77Z" transform="translate(0.01 0)"/><path class="cls-2" d="M579.69,121a3.17,3.17,0,0,1,4.81,1.56c5.65,17.33-13.43,41.34-15.25,42.73-2.59,2-5.07,1.51-8.54,2.62-8.22,2.63-15.55,10.33-22.53,15.25a180.09,180.09,0,0,0,16.61-27.43c2.82-5.89,4-16.19,7.21-20.8C565.68,129.66,573.63,125.16,579.69,121Z" transform="translate(0.01 0)"/><path class="cls-2" d="M595.63,164.56c7-.9,5.37,17.9,4.28,22.23-2.23,8.8-7.06,17.05-12.55,24.23-6-15.84-25.13-4-33.92,1.35a105.86,105.86,0,0,0,16.71-21c2.72-4.59,3.48-12.32,6.32-15.71C580.4,171,590.23,167.69,595.63,164.56Z" transform="translate(0.01 0)"/><path class="cls-2" d="M565.92,97c1.47,2.48.37,5.79-4.09,14.29-5.1,9.71-7.4,14.85-10.34,17.25-4.56,3.73-11.49,5.53-16.42,9.73a126.14,126.14,0,0,0,11.31-23.61c1.85-5.27,0-10.78,3.63-15.17,3.08-3.72,7.71-5,11-5.47C562.72,94.42,564.84,95.2,565.92,97Z" transform="translate(0.01 0)"/><path class="cls-2" d="M612.55,216.59c5-1.32,1.78,16.39.66,18.75-2.53,5.29-7.06,8.56-12,11.31-2.21,1.24-10.62,3.79-15.94,2.55-7.36-1.73-13.35-.79-20.75.64a78.29,78.29,0,0,0,16.91-16.1c1.86-2.47,5-9.74,10.46-11.66C598.55,219.73,605.73,218.4,612.55,216.59Z" transform="translate(0.01 0)"/><path class="cls-2" d="M620.17,271.06c8.51-1.38,9.11,9,6.16,14.13-3.37,5.87-25.07,18.44-28.73,19-4,.62-2.82-.3-7-2.87-8.28-5.12-21-3.41-30.35-4.39a73.69,73.69,0,0,0,16.65-12.21c4.19-4.07,7-10.18,11.09-13.93C591.2,267.89,614.15,272.05,620.17,271.06Z" transform="translate(0.01 0)"/><path class="cls-2" d="M522.93,61.31C526.2,61,527.2,72,527.22,77a44.28,44.28,0,0,1-1.67,11.5,45.41,45.41,0,0,1-5.62,14,62.54,62.54,0,0,1-5.35,6.89c-3.54,4.22-6.66,7.53-8.86,9.79a83.6,83.6,0,0,0,.65-19.93c-.7-7.39,1.89-12.11,5-19C512.78,77.17,518.25,61.71,522.93,61.31Z" transform="translate(0.01 0)"/><path class="cls-2" d="M606.28,326.8c1.68,1.1,15.87,10.34,14.53,17.32-1.07,5.58-12.12,10.13-27,9a87.5,87.5,0,0,0-31.26-19.27c6.53-1.59,14.32-3.78,19.85-7.78a17,17,0,0,1,4.73-2.54,20.5,20.5,0,0,1,12.54.13A25.39,25.39,0,0,1,606.28,326.8Z" transform="translate(0.01 0)"/><path class="cls-2" d="M599.55,394c.71,1.65,2.46,5.77.86,8-2.74,3.87-13.89.39-23.07-2.48-7.15-2.22-12.17-2-14.94-6.34-3.73-5.87-6.67-10.76-12.33-15.17A97.55,97.55,0,0,0,566,379a100,100,0,0,0,22.06-2.86,33.45,33.45,0,0,0,5.69,10.37C596.18,389.5,598.08,390.67,599.55,394Z" transform="translate(0.01 0)"/><path class="cls-2" d="M572.9,426.9c4,4.5,6.55,13,3.33,17.35-2.88,3.88-9.35,2.92-21.58,1.12-14.35-2.12-22.29-3.69-27.14-10-2-2.54-2.86-11.26-4.61-14.82a123.3,123.3,0,0,0-7.78-13.64c7.73,3.72,15.56,7.36,23.83,9.73,5,1.45,12.74-.94,20.3,1.78a43.78,43.78,0,0,1,7.81,3.82A28.56,28.56,0,0,1,572.9,426.9Z" transform="translate(0.01 0)"/><path class="cls-2" d="M516.9,445.08c3.52,1.29,13.88,12.63,10.55,17.75-6.38,9.78-36.46-10.83-41.4-15.43-29.17-27.23-33.9-47.52-36-50,7.33,8.63,15,14.33,24.54,20.19C480.66,421.29,503.07,440,516.9,445.08Z" transform="translate(0.01 0)"/><path class="cls-2" d="M521.71,466.93c-11.63,0-32.39-14.44-36.68-18.43-23.71-22.13-31.38-39.62-34.66-47.09a24.86,24.86,0,0,0-1.46-3l2.28-1.94c7.42,8.73,15,14.26,24.19,19.88,1.77,1.09,4.78,3.33,8.58,6.15,9.46,7,23.76,17.66,33.49,21.25,3,1.07,9.65,7.88,11.58,13.61.86,2.55.75,4.68-.32,6.33h0a7.28,7.28,0,0,1-5.53,3.19A11.61,11.61,0,0,1,521.71,466.93ZM455.4,405.21c4.22,8.75,12.71,23.39,31.67,41.09,4,3.7,25.82,18.78,35.75,17.57a4.38,4.38,0,0,0,3.37-1.86c.55-.84.55-2.1,0-3.73-1.67-4.95-7.65-11-9.77-11.75-10.15-3.75-24.65-14.53-34.25-21.66-3.74-2.78-6.7-5-8.36-6A109.36,109.36,0,0,1,455.4,405.21Z" transform="translate(0.01 0)"/><path class="cls-2" d="M568.78,448.43a108.77,108.77,0,0,1-14.28-1.57c-14-2.07-22.88-3.69-28.18-10.58-1.3-1.65-2.07-5-2.88-8.53a36.25,36.25,0,0,0-1.89-6.54,122.86,122.86,0,0,0-7.68-13.48l-3-4.52,4.88,2.35c7.79,3.75,15.46,7.31,23.59,9.64a25.16,25.16,0,0,0,7.17.4c4-.12,8.61-.25,13.23,1.41a45.25,45.25,0,0,1,8.09,4,29.43,29.43,0,0,1,6.13,4.85c4.62,5.2,7.14,14.39,3.45,19.33C575.63,447.57,572.85,448.43,568.78,448.43Zm-49.64-37.95c1.83,3.07,3.55,6.22,5.11,9.41a36.7,36.7,0,0,1,2.11,7.19c.67,2.92,1.43,6.22,2.33,7.36,4.38,5.7,11.34,7.25,26.18,9.45,11.51,1.69,17.82,2.62,20.16-.53h0c2.66-3.56.39-11.39-3.25-15.49a26.75,26.75,0,0,0-5.49-4.33,41.67,41.67,0,0,0-7.56-3.7c-4.07-1.47-8.35-1.35-12.12-1.23a27.52,27.52,0,0,1-8.08-.52A130.58,130.58,0,0,1,519.14,410.48Z" transform="translate(0.01 0)"/><path class="cls-2" d="M595.54,405.21c-5,0-11.88-2.16-18.65-4.28-1.92-.59-3.72-1-5.32-1.4-4.53-1.06-8.1-1.91-10.43-5.56l-.59-.93c-3.49-5.51-6.25-9.85-11.4-13.87l-4.47-3.48,5.61.82a96.72,96.72,0,0,0,15.68,1,98.8,98.8,0,0,0,21.73-2.82l1.34-.33.44,1.31a32.19,32.19,0,0,0,5.44,9.91c.76.94,1.46,1.69,2.14,2.41a17.8,17.8,0,0,1,3.86,5.4v0c.77,1.78,2.81,6.52.7,9.46C600.43,404.55,598.28,405.21,595.54,405.21Zm-40.9-25.16c3.42,3.46,5.79,7.2,8.44,11.38l.59.93c1.67,2.62,4.42,3.27,8.59,4.25,1.64.39,3.5.83,5.52,1.46,7.22,2.25,19.29,6,21.41,3,.74-1,.4-3.24-1-6.53a15.14,15.14,0,0,0-3.3-4.55c-.69-.73-1.46-1.56-2.3-2.59a35.27,35.27,0,0,1-5.48-9.54A102.39,102.39,0,0,1,566,380.49,100.87,100.87,0,0,1,554.64,380.05Z" transform="translate(0.01 0)"/><path class="cls-2" d="M598.34,354.79c-1.51,0-3.06-.05-4.64-.17l-.54-.05-.39-.37a85.48,85.48,0,0,0-30.72-18.94l-4.74-1.68,4.89-1.19c6.63-1.61,14.12-3.77,19.32-7.54a18.83,18.83,0,0,1,5.12-2.74,21.92,21.92,0,0,1,13.5.13,26.68,26.68,0,0,1,7,3.31l-.83,1.25.85-1.23c5,3.28,16.53,11.68,15.15,18.83C621.09,350.62,611.14,354.79,598.34,354.79Zm-3.89-3.13c13.84.93,24-3.26,24.89-7.82.84-4.4-6.93-11.24-13.85-15.76l0,0a23.69,23.69,0,0,0-6.22-3,19,19,0,0,0-11.66-.13,15.87,15.87,0,0,0-4.26,2.3c-4.44,3.22-10.22,5.3-15.85,6.87A88.19,88.19,0,0,1,594.45,351.66Z" transform="translate(0.01 0)"/><path class="cls-2" d="M595.73,305.87a4.54,4.54,0,0,1-3.35-1.41,20.18,20.18,0,0,0-2.57-1.86c-5.57-3.45-13.39-3.61-21-3.77-3.1-.06-6-.12-8.76-.41l-4.85-.51,4.3-2.3a72,72,0,0,0,16.31-12,45.63,45.63,0,0,0,5.29-6.71,42.6,42.6,0,0,1,5.84-7.26c2.23-2,9-1.59,20-.64,5.25.45,10.69.91,13,.54h0c3.35-.55,6.12.49,7.79,2.92,2.61,3.77,2,9.8-.09,13.44-3.58,6.23-25.49,19.07-29.8,19.73A13.23,13.23,0,0,1,595.73,305.87Zm-30.44-10.13c1.17,0,2.39.07,3.63.09,7.59.16,16.2.34,22.47,4.21a23.18,23.18,0,0,1,2.91,2.11c1,.86,1,.87,3.07.56,3.53-.54,24.62-13,27.66-18.27,1.57-2.73,2.05-7.6.23-10.24-1-1.48-2.61-2-4.85-1.66-2.64.43-7.77,0-13.7-.52-6.09-.52-16.3-1.4-17.71-.12a40.43,40.43,0,0,0-5.4,6.75A47.9,47.9,0,0,1,578,285.8,75.44,75.44,0,0,1,565.29,295.74Z" transform="translate(0.01 0)"/><path class="cls-2" d="M557.9,252.65l5.76-4a77,77,0,0,0,16.59-15.79c.36-.48.82-1.25,1.37-2.15,2-3.32,5-8.34,9.77-10a140,140,0,0,1,14-3.85c2.26-.53,4.59-1.09,6.83-1.68h0a3,3,0,0,1,3.21,1c3.07,3.7.16,17.79-.81,19.84-2.85,6-8,9.39-12.63,12-2.51,1.41-11.33,4-17,2.7-7-1.65-12.77-.77-20.13.65Zm19.34-5.89a35.81,35.81,0,0,1,8.37,1c4.91,1.15,13-1.33,14.87-2.4,4.23-2.36,8.9-5.47,11.38-10.65,1.26-2.66,2.93-15.4,1.18-16.67l-.11,0c-2.27.6-4.62,1.16-6.89,1.7a138.78,138.78,0,0,0-13.65,3.75c-3.72,1.31-6.42,5.78-8.21,8.73-.58,1-1.09,1.8-1.55,2.42a79.72,79.72,0,0,1-12.3,12.67A48,48,0,0,1,577.24,246.76Z" transform="translate(0.01 0)"/><path class="cls-2" d="M542.88,220.55l9.51-9.26a104.19,104.19,0,0,0,16.48-20.7,35.22,35.22,0,0,0,2.76-7.28c1-3.37,2-6.55,3.69-8.61,2.9-3.48,8.57-6.12,13.57-8.45,2.23-1.05,4.34-2,6-3l.26-.15.3,0a4.61,4.61,0,0,1,4.2,1.6c4.25,4.79,2.54,19.23,1.73,22.49-2,8-6.33,16.29-12.82,24.77l-1.64,2.15-.95-2.53c-1.28-3.39-3.21-5.49-5.9-6.42-7.55-2.61-19.3,4.54-25.62,8.39Zm33.63-19a13.91,13.91,0,0,1,4.53.71,12,12,0,0,1,6.63,5.8c5.4-7.45,9-14.73,10.79-21.67,1-4.17,1.76-16.58-1.06-19.76a1.52,1.52,0,0,0-1.32-.63c-1.7,1-3.76,1.92-5.92,2.93-4.72,2.21-10.06,4.7-12.54,7.66-1.33,1.59-2.24,4.62-3.12,7.55a36.49,36.49,0,0,1-3.06,8,107.42,107.42,0,0,1-10.11,14C566.13,203.7,571.59,201.58,576.51,201.58Z" transform="translate(0.01 0)"/><path class="cls-2" d="M531.52,189.72,537,182.3a177.88,177.88,0,0,0,16.47-27.2,57,57,0,0,0,3-9.26c1.23-4.61,2.39-9,4.33-11.74,3.13-4.51,9.12-8.42,14.4-11.88,1.26-.82,2.5-1.63,3.67-2.42a4.65,4.65,0,0,1,6.49,1.16,4.41,4.41,0,0,1,.59,1.14c6,18.34-14.17,43.2-15.76,44.41a11.53,11.53,0,0,1-5.73,2.13,21.34,21.34,0,0,0-3.26.73c-5.48,1.75-10.64,5.94-15.63,10-2.24,1.82-4.35,3.53-6.5,5Zm50-67.76a1.62,1.62,0,0,0-1,.3h0c-1.19.81-2.44,1.63-3.73,2.47-5,3.3-10.78,7-13.58,11.08-1.64,2.35-2.78,6.64-3.89,10.79a60.27,60.27,0,0,1-3.2,9.8,181.82,181.82,0,0,1-11.08,19.48c4.77-3.85,9.72-7.63,15.19-9.38a25,25,0,0,1,3.69-.83,8.74,8.74,0,0,0,4.39-1.55c1.52-1.23,20.15-24.49,14.74-41.08a1.76,1.76,0,0,0-.2-.38,1.66,1.66,0,0,0-1.07-.69Z" transform="translate(0.01 0)"/><path class="cls-2" d="M528.84,145.6l4.95-8.06A125,125,0,0,0,545,114.21a22.65,22.65,0,0,0,.95-6c.22-3.27.45-6.65,2.93-9.66,2.64-3.19,6.67-5.22,12-6l.27,0,.28.06c2.79.62,4.75,1.87,5.82,3.7,1.9,3.2.59,6.9-4.05,15.75-.89,1.69-1.69,3.24-2.43,4.66-3.63,7-5.62,10.87-8.29,13a41.61,41.61,0,0,1-8,4.68,41.05,41.05,0,0,0-8.43,5Zm32.16-50c-4.42.71-7.73,2.36-9.83,4.91-1.87,2.26-2,4.9-2.26,8a24.89,24.89,0,0,1-1.12,6.76,127.75,127.75,0,0,1-8.23,18.35c1.19-.64,2.39-1.23,3.58-1.82a39.15,39.15,0,0,0,7.4-4.31c2.19-1.79,4.2-5.67,7.53-12.11.74-1.42,1.54-3,2.43-4.68,4.22-8,5.19-11,4.13-12.83A5.47,5.47,0,0,0,561,95.58Z" transform="translate(0.01 0)"/><path class="cls-2" d="M503.53,123.58l.71-4.63a82.7,82.7,0,0,0,.64-19.57c-.67-7.08,1.5-11.83,4.26-17.85l.86-1.9c.21-.46.52-1.2.89-2.13,3.4-8.36,7.4-17.3,11.9-17.68a3,3,0,0,1,2.35.85c3.48,3.19,3.57,15.79,3.57,16.32A45.63,45.63,0,0,1,527,88.86a46.7,46.7,0,0,1-5.8,14.42,63.5,63.5,0,0,1-5.51,7.11c-2.81,3.34-5.73,6.57-8.91,9.84ZM523,62.8c-2,.18-5.13,5.5-9.33,15.83-.4,1-.71,1.76-.93,2.24l-.87,1.91c-2.67,5.83-4.6,10-4,16.33a85.21,85.21,0,0,1-.08,15.73c2-2.11,3.82-4.23,5.65-6.41a61.26,61.26,0,0,0,5.25-6.76,43.52,43.52,0,0,0,5.4-13.49l0-.09A42.55,42.55,0,0,0,525.71,77C525.68,69.71,524.21,63.27,523,62.8Z" transform="translate(0.01 0)"/><path class="cls-2" d="M152.17,156.32c-2.83-2.14-18.68-18.58-22.25-17,.83,8.37,6.87,18.4,10.88,25.66a90.3,90.3,0,0,0,8.06,12.23c2.44,3.06,9.64,7.64,10.27,11.38,1.62,9.7-9.31,2.23-12,.22C142.56,185.36,131,172.2,125,171.9c-4.42-.22-2.34,1.56-1.74,5.31,1.31,8.22,17.5,26.93,25.23,34.16s.61,9.41-6.51,5.89c-4.36-2.16-24.43-17.13-29.26-14.25-4.55,2.72,26.59,29.7,27.74,32,7.34,14.49-22.26-2.2-25.71-3.88-3.12-1.51-8.51-5.77-10.64-1.62-1.62,3.19,7.55,14.2,9.39,16.47,3.71,4.6,29,19.52,17.46,23.86-8.52,3.2-18.92-9.7-27.76-8.76-13.11,1.39,9.5,19.86,13.63,22.19,3,1.68,17.31,10.17,7.47,11.73-7.69,1.21-14.17-6.14-22.85-2.66-7.22,2.9-10.45,11.18-4.27,17,3.2,3,8.48,3.34,12.58,3.41,3.68,0,13.42-3.62,16.14-1,9,8.64-30.9,13-34.11,15.3-5.14,3.72-2.1,7.24,2.83,10.08,6.71,3.85,15.29,3.15,22.46,1.22,3-.81,12.43-6.53,15.38-3.54,6.4,6.49-8.48,9.56-11.79,11.47-7.45,4.3-20.82,19.75-4.79,23.08,7.81,1.63,14.06-4.56,18.94-9.47,2.25-2.29,8.55-10.93,11.66-4,2,4.36-6.12,9.71-8.47,12.53-3.48,4.17-7.94,10.63-9.27,16.06-3.88,16,10.66,6.69,16.89,1.41,5.09-4.29,8.55-9.36,12.89-14.1,2.3-2.5,7.41-8.63,9.47-1.61,1.78,6-24.51,35.33-16.34,39.75,7.68,4.16,26.39-23.38,29.45-28.2,10.12-15.9,12.19-34,7.23-52.16-2.4-8.83-9.71-16.65-13.07-25.34a77.32,77.32,0,0,1-5.49-28.3c.17-20.21,13.83-32.89,18.58-51.43,4.44-17.32-1-34.41-11-48.79C171,166.33,161.28,163.2,152.17,156.32Z" transform="translate(0.01 0)"/><path class="cls-2" d="M153.43,411.91a4.85,4.85,0,0,1-2.34-.57,4.32,4.32,0,0,1-2.18-2.8c-1.28-4.87,4.25-13.65,10.11-22.94,3.47-5.51,8.23-13.06,7.68-14.9-.36-1.25-.86-2.05-1.34-2.16-1.33-.31-4.15,2.78-5.21,3.94l-.38.42c-1.43,1.56-2.8,3.2-4.12,4.79a73.19,73.19,0,0,1-8.9,9.44c-2.07,1.75-12.64,10.33-17.72,7.2-2.37-1.47-2.89-4.77-1.6-10.11,1.67-6.82,7.75-14.49,9.58-16.67a27.88,27.88,0,0,1,2.79-2.8c2.56-2.37,6.42-5.94,5.39-8.18v0c-.48-1.06-1-1.65-1.59-1.74-1.84-.28-5,3.25-6.51,4.95-.43.49-.81.92-1.12,1.23-4.91,4.94-11.63,11.7-20.32,9.89-6.41-1.34-8.23-4.55-8.62-7-1.11-6.92,7.72-15.81,13-18.84a27.9,27.9,0,0,1,3.68-1.54c3.15-1.17,8.44-3.14,8.91-5.28.14-.63-.24-1.4-1.12-2.3-1.45-1.47-7.42,1.19-10.29,2.47a28.32,28.32,0,0,1-3.63,1.47c-6.59,1.77-16,3-23.6-1.37-4.08-2.35-6.13-4.7-6.25-7.17-.1-2,1-3.78,3.29-5.43,1.12-.8,4.08-1.46,10.15-2.75,7.66-1.63,23.61-5,24.63-8.61.13-.44-.15-1-.83-1.64-1.25-1.21-6.5-.1-9.64.56a30.91,30.91,0,0,1-5.46.86c-5.07-.09-10.21-.61-13.61-3.82a10.79,10.79,0,0,1-3.57-10.07A13.21,13.21,0,0,1,101,291c5.42-2.17,10.11-.52,14.25.94,3.06,1.08,6,2.1,8.93,1.63,1.82-.29,2.14-.76,2.14-.76.16-.94-3.35-4.39-10.11-8.18-2.47-1.39-19.76-14.53-18.35-21.35.29-1.44,1.45-3.23,5.29-3.64,4.57-.49,9.28,2.21,13.83,4.81,5,2.84,9.64,5.53,13.56,4,1.23-.47,1.9-1.05,2-1.71.49-3.3-8.28-10.12-13.52-14.19a48.45,48.45,0,0,1-6.6-5.63l-.28-.34c-7.89-9.69-10.67-15-9.28-17.75a4.53,4.53,0,0,1,2.74-2.4c2.58-.77,5.63,1,8.09,2.37.66.37,1.28.73,1.8,1,.36.17,1,.49,1.78.92,19,10,22.3,9,22.85,8.43.14-.14.29-1.08-.91-3.44-.39-.61-3.6-3.69-6.71-6.68-14.66-14.07-22-21.87-21.63-25.46a2.42,2.42,0,0,1,1.17-1.83c4.1-2.44,13.81,3.43,25.15,10.76,2.43,1.57,4.54,2.94,5.55,3.44,4,2,7.1,1.64,7.6.92.19-.27.1-1.68-2.79-4.37-6.95-6.51-24.2-25.83-25.66-35a17,17,0,0,0-.59-2.34c-.4-1.33-.78-2.58,0-3.65s2.33-1.13,3.83-1.06c4.82.24,11.93,7,17.64,12.43,2.16,2.06,4,3.84,5.28,4.78,4,3,8.19,4.91,9.33,4.21.33-.19.6-1.1.29-3s-3.44-4.62-6-6.82a35.12,35.12,0,0,1-4-3.86,92.31,92.31,0,0,1-8.21-12.45c-.41-.76-.85-1.55-1.31-2.36-4-7.16-9-16.07-9.74-23.87l-.11-1.07,1-.45c3.08-1.4,9.16,3.54,20,13.76,1.69,1.58,3.14,2.95,3.76,3.42a103.93,103.93,0,0,0,9,5.89c6.22,3.77,12.09,7.32,16.62,13.89,8,11.56,16.39,29.63,11.22,50-2,7.72-5.46,14.45-8.84,21-4.93,9.51-9.59,18.49-9.69,30.11a75.51,75.51,0,0,0,5.38,27.73,69.84,69.84,0,0,0,6,11.09c2.83,4.59,5.77,9.33,7.15,14.42,5.24,19.05,2.67,37.51-7.41,53.36C181.7,383.91,163.79,411.91,153.43,411.91Zm11.76-46.39a4.09,4.09,0,0,1,.85.09c1.63.38,2.82,1.8,3.54,4.24.89,3-2.3,8.28-8,17.35-4.77,7.56-10.7,17-9.75,20.58a1.36,1.36,0,0,0,.7.92c4.81,2.6,19-14.41,27.47-27.68,9.62-15.12,12.06-32.74,7.05-51-1.27-4.67-3.95-9-6.8-13.63A73,73,0,0,1,174,304.86,78.37,78.37,0,0,1,168.42,276c.1-12.36,5.15-22.09,10-31.49,3.29-6.36,6.71-12.94,8.6-20.32,4.89-19.29-3.17-36.52-10.79-47.57-4.16-6-9.77-9.43-15.7-13a108.44,108.44,0,0,1-9.26-6.07c-.74-.57-2.11-1.85-4-3.63-3.14-2.94-11.9-11.17-15.6-12.88,1.25,6.78,5.57,14.53,9.11,20.86.46.82.9,1.62,1.32,2.39a90.54,90.54,0,0,0,7.93,12,33.3,33.3,0,0,0,3.64,3.46c3.16,2.77,6.43,5.63,6.93,8.59s-.07,5.07-1.7,6.05c-3.3,2-9.36-1.89-12.68-4.38-1.39-1.05-3.32-2.88-5.55-5-4.78-4.55-12-11.43-15.71-11.61a7.89,7.89,0,0,0-1.11,0c.07.26.16.58.24.84a18.69,18.69,0,0,1,.68,2.73c1.22,7.7,17,26,24.76,33.3,4.47,4.2,4.21,6.82,3.19,8.28-1.7,2.46-6.49,2.48-11.39,0-1.17-.57-3.24-1.91-5.85-3.6-5.55-3.59-18.29-11.83-21.68-10.83.71,3.49,14.65,16.87,20.7,22.68,5.18,5,6.9,6.66,7.31,7.49.61,1.19,2.45,4.84.34,6.93-2.78,2.74-10.41.44-26.35-7.91-.78-.41-1.36-.72-1.7-.88-.61-.3-1.27-.68-2-1.08-1.85-1.05-4.39-2.5-5.75-2.09a1.56,1.56,0,0,0-.92.88c-.1.23-.75,2.6,8.94,14.49l.29.36a52.08,52.08,0,0,0,6.1,5.14c8.73,6.78,15.34,12.34,14.65,17-.28,1.82-1.59,3.19-3.91,4.07-5.24,2-10.77-1.17-16.11-4.23-4.14-2.37-8.42-4.82-12-4.44-1.13.12-2.5.44-2.68,1.27-.82,4,12.75,15.79,16.89,18.12,5.64,3.16,12.24,7.7,11.59,11.33-.3,1.68-1.86,2.75-4.63,3.19-3.73.59-7.11-.6-10.39-1.76-4-1.41-7.76-2.74-12.13-1A10.19,10.19,0,0,0,95.6,301a7.9,7.9,0,0,0,2.68,7.33c2.66,2.51,7.13,2.92,11.58,3a30.61,30.61,0,0,0,4.81-.8c4.89-1,10-2.1,12.34.22,1.92,1.83,2,3.52,1.64,4.62-1.41,4.93-12.52,7.66-26.9,10.73-3.87.82-8.26,1.75-9,2.25-1.4,1-2.09,2-2,2.84s.71,2.39,4.76,4.72c6.68,3.83,15.28,2.7,21.32,1.07a30.45,30.45,0,0,0,3.19-1.31c4.78-2.13,10.73-4.8,13.65-1.83,1.64,1.66,2.28,3.36,1.91,5.05-.82,3.73-6.35,5.79-10.8,7.44a30.18,30.18,0,0,0-3.22,1.33c-5.18,3-12.29,10.92-11.51,15.77.36,2.22,2.47,3.75,6.28,4.54,7.09,1.49,12.9-4.36,17.57-9.06.27-.28.62-.67,1-1.11,2.29-2.57,5.75-6.46,9.21-5.92,1.64.25,2.94,1.42,3.87,3.47,1.92,4.22-2.7,8.5-6.08,11.63a29.54,29.54,0,0,0-2.51,2.49c-1.74,2.09-7.47,9.3-9,15.49-.89,3.64-.79,6.2.25,6.84,1.92,1.19,8.3-1.92,14.21-6.93a69.55,69.55,0,0,0,8.53-9.07c1.35-1.62,2.74-3.28,4.22-4.9l.37-.41C159.76,368.46,162.43,365.52,165.19,365.52Z" transform="translate(0.01 0)"/><path class="cls-2" d="M100.94,106.33c-2.39-2.18-15.15-12.13-13.18-2.83,3,14.39,11,28.16,19.46,40,4,5.69,8.31,11.74,13.22,16.74,4.07,4.12,7.63,4.42,12.7,7.69-7.16-13.49-9-28-15.92-40.62A80,80,0,0,0,100.94,106.33Z" transform="translate(0.01 0)"/><path class="cls-2" d="M81.44,138.09c-5.63-1.92,1.19,16.18,4.12,21.48,7,12.62,15.76,24.09,24.58,35.44,5-1.65,10.62,2.14,14.91,4.36A95.37,95.37,0,0,1,116.13,181c-1.09-3.09-1.82-12.33-.85-13.74C114.23,166.4,86.85,139.93,81.44,138.09Z" transform="translate(0.01 0)"/><path class="cls-2" d="M68.85,176.5c-6.21-3.12-8.46-.21-5.36,6.36,5.45,11.54,14.3,21.11,23.84,29.41,3.84,3.35,8.72,8.54,13.13,8.87,7,.52,9.6-1,16.89,2.51-4.66-5.51-15.14-22.57-19.64-25.89C94.24,195.21,75.31,179.77,68.85,176.5Z" transform="translate(0.01 0)"/><path class="cls-2" d="M62,213.28c-12.69-6.39-14.89,3.75-9.11,13.41,6.08,10.14,16.18,17.12,26.3,22.77C83.7,252,90,256.19,94.37,255.58c6.91-1,8.28-3.27,16.2-.64-3.43-3.74-12.13-20.73-14.53-22.27C85.23,225.79,73.44,219,62,213.28Z" transform="translate(0.01 0)"/><path class="cls-2" d="M77.22,260.93c-4.19-1.28-30.77-10.45-30.91-1.14-.17,10.94,12.23,20.86,20.34,26.4,3.36,2.3,16,11.21,20.41,9.76,1.16-.38,3.87-5.88,5.1-7a22.07,22.07,0,0,1,11.68-5.26c-3.87-3.4-7.86-7.47-10.3-12.08-2.67-5-.78-4.33-6.19-7.16C84.27,262.84,80.55,262,77.22,260.93Z" transform="translate(0.01 0)"/><path class="cls-2" d="M132.1,100.28a1.29,1.29,0,0,0-2.43.67c.51,8.35,1.75,22.67,8.5,32.18,3.7,5.21,14.9,14.73,22.11,20.79a.86.86,0,0,0,1.27-1.13C150.55,136.06,141.29,118.1,132.1,100.28Z" transform="translate(0.01 0)"/><path class="cls-2" d="M41.39,309.07c-5.32,7.66,10.14,11.64,15,13.34,6.08,2.14,22,5.26,27.28,1.11,2.46-2,11.1-5.27,12.78-5.73A22.08,22.08,0,0,1,89.63,312c-.84-1.1-2.82-7.54-3.47-8-2.74-2.16-13.6.62-16.84,1C63.34,305.65,45.3,303.44,41.39,309.07Z" transform="translate(0.01 0)"/><path class="cls-2" d="M42.37,356.81c-10.21,10.75,4.78,13.87,14,14.37a135.16,135.16,0,0,0,44.7-5.48c-2-6.55,1.18-13.14,5.51-18a35,35,0,0,1-16.67-4.17c-1.36-.78-5.92-5.9-7-6.21-2.16-.63-10,2.68-12.07,3.4C61.32,344.14,49.55,349.2,42.37,356.81Z" transform="translate(0.01 0)"/><path class="cls-2" d="M87,382.28c-6.35,4.42-22,16-18.24,25.48,3.62,9.14,21.61.95,27.35-1.32,3.54-1.41,23.51-7.78,25.09-11.53.63-1.47-.9-6.5-.57-8.77a33.35,33.35,0,0,1,3.12-9.37,21.7,21.7,0,0,1-11.31-.18c-1-.32-5.49-3.44-6.66-3.51C100.09,372.8,91.43,379.17,87,382.28Z" transform="translate(0.01 0)"/><path class="cls-2" d="M127.55,402.64c-4.73,3.08-20.38,30-15.58,33.3,5.55,3.83,31.57-17.46,32.68-22,.3-1.25-.13-14.81,1.35-18.21a37.47,37.47,0,0,1-8.54,5.09C134.23,402,130,401.1,127.55,402.64Z" transform="translate(0.01 0)"/><path class="cls-2" d="M160.83,155.62a2.32,2.32,0,0,1-1.5-.54h0C150.23,147.43,140.47,139,137,134c-6.59-9.28-8.15-22.49-8.78-33a2.8,2.8,0,0,1,2.64-3,2.81,2.81,0,0,1,2.62,1.49l.57,1.11c8.86,17.19,18,35,28.8,51.27a2.36,2.36,0,0,1-2,3.66Zm-29.6-53.76c.4,6.53,1.59,21.14,8.16,30.4,3.17,4.45,12.24,12.37,18.55,17.72-9.85-15.42-18.36-31.92-26.61-47.91Z" transform="translate(0.01 0)"/><path class="cls-2" d="M62.6,372.82q-3.12,0-6.25-.14c-4.8-.26-16.18-1.49-18.48-7.28-1.11-2.81.05-6,3.46-9.62,5.87-6.19,15.4-11.57,29.14-16.44l1.24-.47c5.82-2.23,9.81-3.5,11.73-3,.83.26,1.8,1.16,4.16,3.46a35,35,0,0,0,3.17,2.89,33.26,33.26,0,0,0,15.94,4h3.41l-2.3,2.52c-2.33,2.55-7.5,9.26-5.27,16.52l.45,1.45-1.45.43A136.18,136.18,0,0,1,62.6,372.82Zm19.68-34.07c-1.22,0-4.42,1-9.5,2.92l-1.3.49c-13.29,4.72-22.44,9.85-28,15.68-1.74,1.83-3.65,4.43-2.85,6.45,1.12,2.82,7.34,4.93,15.84,5.39a132.86,132.86,0,0,0,42.81-5c-1-5,.54-10.48,4.32-15.55a36.7,36.7,0,0,1-14.3-4.23,25.63,25.63,0,0,1-3.83-3.37,36.79,36.79,0,0,0-3-2.74Z" transform="translate(0.01 0)"/><path class="cls-2" d="M74.73,327.06a65.34,65.34,0,0,1-18.84-3.24l-1.72-.57c-5-1.63-13.42-4.37-15.08-9.32a6.21,6.21,0,0,1,1.07-5.72c3.33-4.8,13.93-4.69,22.45-4.6,2.73,0,5.08.05,6.54-.11.68-.08,1.8-.28,3.09-.52,6.67-1.23,12.39-2.09,14.85-.17.59.45,1,1.31,2.16,4.5a32.75,32.75,0,0,0,1.56,3.76,20.45,20.45,0,0,0,6.35,5.35l3.29,1.78-3.6,1c-1.61.44-10,3.69-12.25,5.45S78.74,327.06,74.73,327.06ZM59.21,306.59c-6.62,0-14.53.37-16.59,3.34a3.35,3.35,0,0,0-.69,3.05c1.18,3.52,9.28,6.15,13.16,7.42l1.8.59h0c6.48,2.29,21.48,4.82,25.84,1.31,1.92-1.53,6.93-3.66,10.3-4.95a23.72,23.72,0,0,1-4.58-4.43,21.65,21.65,0,0,1-2-4.55c-.42-1.11-1-2.75-1.33-3.28-1.84-1.1-9.16.25-12.33.84-1.34.25-2.51.46-3.29.55a67.58,67.58,0,0,1-6.91.13Zm26-1.42h0Z" transform="translate(0.01 0)"/><path class="cls-2" d="M86,297.6c-3.72,0-9.95-3.13-19.71-9.87l-.45-.3c-14.06-9.61-21.13-18.92-21-27.66a4.92,4.92,0,0,1,2.07-4.07c5.18-3.73,19.37.17,29.59,3.42l1.19.38,1.92.56A47.24,47.24,0,0,1,88,263.12c4,2.12,4.51,2.53,5.48,4.89a30.1,30.1,0,0,0,1.35,2.9c1.95,3.7,5.12,7.4,10,11.65l2.49,2.2-3.29.42a20.38,20.38,0,0,0-10.88,4.9,21,21,0,0,0-1.89,2.8c-1.82,2.92-2.66,4.14-3.73,4.5A5.14,5.14,0,0,1,86,297.6ZM53.23,257.14c-2.42,0-3.81.43-4.59,1a1.93,1.93,0,0,0-.83,1.68c-.12,7.57,6.69,16.26,19.69,25.14h0l.45.32c12.77,8.8,17.07,9.65,18.52,9.29a25.41,25.41,0,0,0,2.24-3.26,18,18,0,0,1,2.44-3.46,23.5,23.5,0,0,1,9.48-5,41,41,0,0,1-8.42-10.48,34.54,34.54,0,0,1-1.47-3.16c-.64-1.57-.64-1.57-4.09-3.37a44.6,44.6,0,0,0-7.91-2.84l-1.95-.57L75.56,262C64,258.31,57.23,257.14,53.23,257.14Zm33.18,37.47Z" transform="translate(0.01 0)"/><path class="cls-2" d="M115.54,258.22l-5.48-1.82c-5.16-1.71-7.11-1.2-10.36-.37a42.73,42.73,0,0,1-5.17,1.08c-4.18.54-9.29-2.41-13.8-5l-2.27-1.29h0c-9-5-20.21-12.23-26.86-23.31-3.74-6.26-4.29-12.57-1.37-15.71,1.43-1.55,5-3.58,12.44.19a390.18,390.18,0,0,1,34.14,19.47c1.41.9,3.46,4.21,7.8,11.55,2.7,4.57,5.5,9.31,7,11Zm-35.62-10c.73.4,1.5.85,2.3,1.31,3.9,2.25,8.75,5,11.92,4.63a42.13,42.13,0,0,0,4.82-1,16.9,16.9,0,0,1,7.91-.64c-1.44-2.21-3.11-5-4.84-8-2.46-4.15-5.83-9.85-6.84-10.55a387.81,387.81,0,0,0-33.86-19.31c-4.19-2.11-7.44-2.41-8.91-.83-1.94,2.09-1.2,7.19,1.76,12.13C60.45,236.43,71.23,243.34,79.92,248.19Z" transform="translate(0.01 0)"/><path class="cls-2" d="M123,228.09,116.69,225a20.2,20.2,0,0,0-11-2.26c-1.53,0-3.25.05-5.34-.1-4.19-.32-8.35-4.11-12-7.45l-2-1.79h0C74.66,203.25,67,193.74,62.13,183.51c-2.41-5.11-1.52-7.55-.35-8.69s3.32-1.87,7.74.35C74.61,177.74,86.77,187.3,94,193c2.11,1.66,3.77,3,4.56,3.55,3,2.21,8,9.42,12.83,16.39,2.75,4,5.35,7.71,7.07,9.74Zm-15.86-8.36a21.94,21.94,0,0,1,5.81.67c-1.24-1.73-2.61-3.71-4-5.74-4.26-6.14-9.55-13.77-12.15-15.68-.83-.61-2.51-1.93-4.63-3.61-6.71-5.27-19.2-15.09-24-17.52-2.71-1.37-4-1.17-4.29-.88s-.62,1.9,1,5.26c4.65,9.84,12.1,19,23.46,28.92h0c.65.57,1.33,1.19,2,1.83,3.15,2.87,7.07,6.44,10.22,6.67,2,.15,3.54.12,5.07.1Z" transform="translate(0.01 0)"/><path class="cls-2" d="M129.22,203.22l-4.87-2.52c-.62-.32-1.27-.67-1.94-1-3.8-2.08-8.11-4.43-11.82-3.22l-1,.32-.65-.83c-9.47-12.21-17.87-23.31-24.7-35.63h0c-1-1.82-8.94-19-5.62-22.91a2.83,2.83,0,0,1,3.29-.72c4.16,1.41,18.21,14.29,31.41,26.69,1.44,1.35,2.68,2.52,2.88,2.69l1.08.88-.79,1.16c-.54,1.24,0,9.4,1,12.37a94.69,94.69,0,0,0,8.78,18.12Zm-16.49-10.11a19.13,19.13,0,0,1,8.33,2.44,96.62,96.62,0,0,1-6.35-14.08c-.87-2.45-1.9-10.26-1.16-13.79l-2.28-2.13c-6.49-6.1-26.22-24.64-30.32-26l-.11,0c-.83,2.24,2.93,13.77,6,19.36,6.59,11.87,14.7,22.67,23.85,34.47A9.88,9.88,0,0,1,112.73,193.11Z" transform="translate(0.01 0)"/><path class="cls-2" d="M137.16,172.37l-4.83-3.12a42.2,42.2,0,0,0-5.15-2.76,24.22,24.22,0,0,1-7.81-5.14c-4.93-5.11-9.16-11.06-13.25-16.81l-.12-.17c-10.68-15.05-17.12-28.32-19.71-40.56-.57-2.64-.12-4.41,1.33-5.25,4.15-2.4,14.22,6.6,14.32,6.7a81.42,81.42,0,0,1,16.6,21.4c3.55,6.46,5.82,13.52,8,20.34s4.4,13.69,7.9,20.29Zm-28.72-29.74.12.17c4,5.66,8.2,11.52,13,16.46a21.75,21.75,0,0,0,6.94,4.52l1.24.59a156.54,156.54,0,0,1-6-16.45c-2.25-7-4.38-13.61-7.79-19.83a78.63,78.63,0,0,0-16-20.62c-3.56-3.21-9.56-6.92-10.79-6.32a3.54,3.54,0,0,0,.1,2C91.72,115,98,127.92,108.44,142.63Z" transform="translate(0.01 0)"/><path class="cls-2" d="M113.73,437.88a4.47,4.47,0,0,1-2.62-.74,4.13,4.13,0,0,1-1.53-3.69c.09-8,12.59-29.08,17.15-32.06h0c1.61-1,3.72-1.17,5.76-1.3a16,16,0,0,0,4.44-.69,35.88,35.88,0,0,0,8.14-4.86l4.71-3.75-2.4,5.52c-.88,2-1,9.36-1.06,13.3a26,26,0,0,1-.23,4.73c-1.06,4.37-18.37,18.9-28.17,22.62A12.12,12.12,0,0,1,113.73,437.88Zm14.64-34c-3.79,2.49-15.72,22.79-15.79,29.58,0,.84.17,1.14.24,1.19.45.32,1.75.34,4-.53,9.51-3.6,25.65-17.79,26.33-20.58.08-.41.11-2.32.13-4,.06-3.88.15-7.59.46-10.42a38.77,38.77,0,0,1-5.73,3,18.53,18.53,0,0,1-5.37.9C131,403.18,129.32,403.28,128.37,403.9Z" transform="translate(0.01 0)"/><path class="cls-2" d="M76.45,413.49a12.5,12.5,0,0,1-4.92-.88,7.51,7.51,0,0,1-4.19-4.3c-2.92-7.39,3.4-16.56,18.77-27.26l.91-.63c4.86-3.42,13-9.13,18.8-8.84,1,.06,2.29.79,4.85,2.33a24.93,24.93,0,0,0,2.19,1.25,20.28,20.28,0,0,0,10.49.16l3.21-.81-1.5,2.94a31.44,31.44,0,0,0-3,8.95,18,18,0,0,0,.35,3.9c.39,2.49.6,4.08.12,5.19-1.29,3.07-9.62,6.54-22.64,11.16-1.49.52-2.66.94-3.27,1.18l-1.48.6C90.51,410.32,82.75,413.49,76.45,413.49Zm28.86-38.93c-4.73,0-12.41,5.39-16.57,8.31l-.91.64c-13.69,9.53-20,17.94-17.7,23.7a4.55,4.55,0,0,0,2.57,2.64c5.39,2.3,16.15-2.09,21.33-4.2l1.5-.6c.66-.27,1.86-.69,3.38-1.23,13.15-4.66,20.18-7.85,20.88-9.49a15.4,15.4,0,0,0-.32-3.58,18.32,18.32,0,0,1-.35-4.83,34.24,34.24,0,0,1,2-7.15A23.26,23.26,0,0,1,112,378a16,16,0,0,1-2.88-1.55,26.22,26.22,0,0,0-3.53-1.91Z" transform="translate(0.01 0)"/><path class="cls-2" d="M49.75,121a3.18,3.18,0,0,0-4.43.8,3.48,3.48,0,0,0-.39.77c-5.64,17.32,13.44,41.33,15.25,42.72,2.59,2,5.08,1.52,8.55,2.63,8.21,2.63,15.55,10.33,22.53,15.26a177.54,177.54,0,0,1-16.61-27.43c-2.83-5.9-4-16.2-7.21-20.81C63.75,129.66,55.79,125.15,49.75,121Z" transform="translate(0.01 0)"/><path class="cls-2" d="M33.8,164.56c-7-.91-5.36,17.9-4.27,22.23,2.22,8.81,7.06,17.06,12.54,24.23,6-15.83,25.14-3.94,33.93,1.35a105.91,105.91,0,0,1-16.72-21C56.56,186.77,55.8,179,53,175.64,49,171,39.21,167.7,33.8,164.56Z" transform="translate(0.01 0)"/><path class="cls-2" d="M63.55,97c-1.49,2.48-.38,5.79,4.09,14.29C72.74,121,75,126.17,78,128.57c4.56,3.73,11.5,5.54,16.43,9.73a125.22,125.22,0,0,1-11.31-23.61c-1.86-5.27,0-10.78-3.63-15.18-3.08-3.71-7.71-5-11.06-5.45C66.72,94.42,64.6,95.2,63.55,97Z" transform="translate(0.01 0)"/><path class="cls-2" d="M16.85,216.58c-4.93-1.31-1.76,16.4-.64,18.77,2.52,5.28,7.06,8.56,12,11.31,2.21,1.22,10.63,3.78,15.94,2.54,7.37-1.73,13.35-.79,20.75.64A78.71,78.71,0,0,1,48,233.74c-1.86-2.48-5-9.73-10.47-11.65C30.88,219.74,23.7,218.4,16.85,216.58Z" transform="translate(0.01 0)"/><path class="cls-2" d="M9.27,271.06c-8.52-1.39-9.11,9-6.16,14.12,3.37,5.88,25.06,18.45,28.73,19,4,.62,2.81-.28,7-2.87,8.28-5.11,21.06-3.4,30.36-4.38a73.78,73.78,0,0,1-16.65-12.18c-4.18-4.08-7-10.19-11.08-13.95C38.24,267.89,15.29,272,9.27,271.06Z" transform="translate(0.01 0)"/><path class="cls-2" d="M106.55,61.31C103.29,61,102.28,72,102.27,77a43.39,43.39,0,0,0,1.62,11.5,45.74,45.74,0,0,0,5.66,14,63.87,63.87,0,0,0,5.36,6.89c3.54,4.22,6.65,7.53,8.86,9.79a84.13,84.13,0,0,1-.67-19.93c.71-7.4-1.87-12.1-5-19C116.65,77.18,111.18,61.71,106.55,61.31Z" transform="translate(0.01 0)"/><path class="cls-2" d="M23.16,326.79c-1.68,1.11-15.87,10.34-14.53,17.34,1.06,5.57,12.11,10.12,27,9a87.14,87.14,0,0,1,31.22-19.28c-6.53-1.6-14.32-3.79-19.85-7.78a17,17,0,0,0-4.74-2.57c-5.51-1.91-10.71-.41-12.53.13A25,25,0,0,0,23.16,326.79Z" transform="translate(0.01 0)"/><path class="cls-2" d="M29.94,394c-.71,1.64-2.47,5.77-.87,8,2.74,3.89,13.89.4,23.08-2.47,7.14-2.22,12.16-2,14.94-6.35,3.72-5.86,6.67-10.75,12.33-15.15a100.48,100.48,0,0,1-38-1.88,33.86,33.86,0,0,1-5.74,10.36C33.26,389.5,31.36,390.67,29.94,394Z" transform="translate(0.01 0)"/><path class="cls-2" d="M56.55,426.89c-4,4.51-6.54,13-3.33,17.36,2.89,3.88,9.36,2.93,21.58,1.12,14.35-2.11,22.3-3.69,27.14-10,2-2.54,2.87-11.26,4.62-14.83a123,123,0,0,1,7.77-13.62c-7.73,3.72-15.56,7.35-23.83,9.72-5,1.45-12.73-.94-20.3,1.78a44.38,44.38,0,0,0-7.8,3.82A28.24,28.24,0,0,0,56.55,426.89Z" transform="translate(0.01 0)"/><path class="cls-2" d="M112.55,445.08c-3.52,1.3-13.88,12.64-10.55,17.75,6.38,9.78,36.46-10.83,41.4-15.43,29.16-27.23,33.89-47.53,36-50-7.33,8.62-15,14.33-24.55,20.19C148.78,421.28,126.37,440,112.55,445.08Z" transform="translate(0.01 0)"/><path class="cls-2" d="M107.78,466.89a11.61,11.61,0,0,1-1.47-.09,7.3,7.3,0,0,1-5.54-3.19c-1.07-1.61-1.2-3.7-.38-6.2,1.87-5.72,8.58-12.61,11.64-13.74,9.73-3.59,24-14.21,33.47-21.24,3.81-2.83,6.82-5.07,8.6-6.16,9.18-5.66,16.81-11.21,24.19-19.88h0l2.28,1.94h0a23,23,0,0,0-1.5,3.11c-3.29,7.47-11,25-34.62,47C140.16,452.45,119.41,466.89,107.78,466.89Zm66.28-61.72a111.22,111.22,0,0,1-18.39,13.66c-1.67,1-4.63,3.22-8.38,6-9.59,7.13-24.09,17.9-34.22,21.65h0c-2.17.8-8.22,6.92-9.83,11.85-.52,1.59-.5,2.8,0,3.62a4.4,4.4,0,0,0,3.39,1.87c10,1.21,31.76-13.87,35.74-17.57C161.34,428.59,169.84,413.93,174.06,405.17Z" transform="translate(0.01 0)"/><path class="cls-2" d="M60.67,448.48c-4.07,0-6.86-.87-8.66-3.29-3.67-5-1.14-14.15,3.42-19.29l0-.06A30.08,30.08,0,0,1,61.63,421a46.18,46.18,0,0,1,8.05-3.94c4.64-1.66,9.21-1.53,13.24-1.41a25.11,25.11,0,0,0,7.16-.4c8.19-2.35,15.84-5.9,23.6-9.63l4.89-2.36-3,4.54a120.62,120.62,0,0,0-7.68,13.45,37.36,37.36,0,0,0-1.91,6.59c-.82,3.52-1.59,6.84-2.87,8.5C97.84,443.17,89,444.8,75,446.89A108.55,108.55,0,0,1,60.67,448.48Zm-3-20.57C54,432,51.78,439.83,54.42,443.4c2.35,3.16,8.67,2.23,20.15.53,14.85-2.23,21.82-3.79,26.17-9.44.89-1.14,1.65-4.43,2.33-7.34a37.77,37.77,0,0,1,2.13-7.23c1.56-3.19,3.27-6.33,5.11-9.39a129.84,129.84,0,0,1-19.4,7.59,27.5,27.5,0,0,1-8.08.52c-3.76-.12-8-.24-12.12,1.23a42.61,42.61,0,0,0-7.52,3.69A26.67,26.67,0,0,0,57.65,427.91Z" transform="translate(0.01 0)"/><path class="cls-2" d="M34,405.23c-2.76,0-4.91-.66-6.12-2.37-1.9-2.69-.5-6.69.73-9.47a17.35,17.35,0,0,1,3.83-5.45c.67-.72,1.36-1.46,2.1-2.38h0A32.21,32.21,0,0,0,40,375.66l.45-1.29,1.33.32a98.51,98.51,0,0,0,37.43,1.85l5.58-.79-4.45,3.46c-5.18,4-7.94,8.4-11.44,13.92l-.54.85c-2.34,3.69-5.91,4.53-10.43,5.58-1.6.38-3.41.8-5.33,1.4C45.83,403.08,38.93,405.23,34,405.23Zm2.88-17.79c-.82,1-1.58,1.82-2.25,2.54a14.64,14.64,0,0,0-3.27,4.6c-1.8,4.08-1.55,5.81-1,6.55,2.11,3,14.17-.77,21.37-3,2.07-.64,3.94-1.08,5.59-1.47,4.15-1,6.89-1.61,8.57-4.26l.54-.85c2.67-4.21,5-8,8.49-11.45a101.41,101.41,0,0,1-32.48-2.16A34.91,34.91,0,0,1,36.85,387.44Z" transform="translate(0.01 0)"/><path class="cls-2" d="M31.06,354.8c-12.78,0-22.75-4.17-24-10.38C5.77,337.56,16,329.69,22.16,325.6l.09-.06a26.76,26.76,0,0,1,7.05-3.32h0a22,22,0,0,1,13.44-.11,18.68,18.68,0,0,1,5.17,2.77c5.12,3.7,12.3,5.8,19.3,7.51l4.88,1.2-4.74,1.67a85.3,85.3,0,0,0-30.76,18.95l-.39.37-.54.05C34.09,354.74,32.56,354.8,31.06,354.8Zm-.9-29.7A23.67,23.67,0,0,0,23.91,328l-.1.06c-9.2,6.07-14.48,12.11-13.79,15.75.9,4.55,11.08,8.73,24.89,7.82a87.8,87.8,0,0,1,27-17.54c-5.78-1.61-11.41-3.66-15.82-6.84A15.53,15.53,0,0,0,41.77,325,18.9,18.9,0,0,0,30.16,325.1Z" transform="translate(0.01 0)"/><path class="cls-2" d="M33.7,305.88a13.24,13.24,0,0,1-2.11-.2C27.27,305,5.36,292.16,1.79,286c-2-3.56-2.68-9.7-.1-13.43,1.68-2.43,4.45-3.47,7.8-2.92,2.26.36,7.66-.11,12.87-.56,11-.94,17.86-1.37,20.09.65h0A42.17,42.17,0,0,1,48.32,277a45.81,45.81,0,0,0,5.25,6.68,72.28,72.28,0,0,0,16.32,11.95l4.28,2.29-4.83.52c-2.74.3-5.7.36-8.83.42-7.55.16-15.35.32-20.9,3.75a20.28,20.28,0,0,0-2.55,1.85A4.52,4.52,0,0,1,33.7,305.88Zm-26-33.43a4.07,4.07,0,0,0-3.58,1.77c-1.82,2.64-1.34,7.51.23,10.23,3,5.27,24.13,17.72,27.66,18.27,2,.31,2.06.3,3.09-.56a23.29,23.29,0,0,1,2.89-2.1c6.25-3.86,14.84-4,22.41-4.2,1.27,0,2.51-.05,3.71-.09a75.53,75.53,0,0,1-12.68-9.95,47.83,47.83,0,0,1-5.61-7.11,39.6,39.6,0,0,0-5.43-6.8c-1.42-1.29-11.68-.4-17.81.12-5.89.51-11,1-13.61.53A8.28,8.28,0,0,0,7.74,272.45Z" transform="translate(0.01 0)"/><path class="cls-2" d="M71.53,252.65l-6.9-1.34c-7.29-1.41-13-2.29-20.1-.65-5.91,1.38-14.67-1.4-17-2.69-4.68-2.57-9.84-6-12.63-12-1-2-3.87-16.17-.79-19.86a3,3,0,0,1,3.18-1c2.25.6,4.61,1.17,6.88,1.71a136.93,136.93,0,0,1,13.89,3.84c4.76,1.66,7.79,6.68,9.8,10,.53.89,1,1.65,1.37,2.15a77.21,77.21,0,0,0,16.56,15.77ZM16.39,218h0c-1.7,1.23,0,14,1.22,16.7C20,239.91,24.71,243,29,245.35c1.92,1.06,10,3.52,14.88,2.39a40.17,40.17,0,0,1,15.28-.43,79.51,79.51,0,0,1-12.29-12.65c-.48-.64-1-1.47-1.56-2.42-1.78-3-4.48-7.42-8.23-8.73h0a138.35,138.35,0,0,0-13.59-3.74c-2.29-.55-4.66-1.12-7-1.73Z" transform="translate(0.01 0)"/><path class="cls-2" d="M86.36,220.35l-11.57-7c-6.29-3.78-18-10.83-25.46-8.24-2.68.94-4.59,3-5.86,6.4l-.94,2.52-1.65-2.13c-6.48-8.42-10.78-16.76-12.79-24.79-.82-3.25-2.52-17.7,1.75-22.5A4.59,4.59,0,0,1,34,163.07l.3,0,.26.15c1.66,1,3.8,2,6.06,3,5,2.33,10.59,5,13.49,8.39h0c1.72,2.06,2.67,5.24,3.68,8.61a35.26,35.26,0,0,0,2.77,7.32,104.64,104.64,0,0,0,16.48,20.68ZM33.34,166a1.58,1.58,0,0,0-1.26.62c-2.84,3.19-2.13,15.6-1.08,19.77,1.75,7,5.36,14.28,10.76,21.68a11.9,11.9,0,0,1,6.58-5.78c6-2.07,13.39.57,19.79,3.84a108.24,108.24,0,0,1-10.13-14,36.93,36.93,0,0,1-3.07-8c-.88-2.93-1.79-6-3.11-7.55-2.47-2.92-7.78-5.41-12.47-7.6-2.19-1-4.27-2-6-3Z" transform="translate(0.01 0)"/><path class="cls-2" d="M97.94,189.74l-7.54-5.31c-2.16-1.52-4.29-3.25-6.54-5.08-5-4-10.13-8.23-15.59-10a21.45,21.45,0,0,0-3.27-.73,11.47,11.47,0,0,1-5.75-2.15c-1.63-1.26-21.81-25.74-15.75-44.36a4.68,4.68,0,0,1,7.11-2.34c1.17.8,2.42,1.62,3.7,2.46,5.26,3.45,11.23,7.36,14.36,11.85h0c1.93,2.78,3.09,7.12,4.31,11.71a58.92,58.92,0,0,0,3,9.31,176.68,176.68,0,0,0,16.47,27.19ZM47.93,122a1.7,1.7,0,0,0-.73.17,1.67,1.67,0,0,0-.85,1C41,139.59,59.58,162.89,61.1,164.13a8.74,8.74,0,0,0,4.4,1.55,25.3,25.3,0,0,1,3.69.83c5.46,1.75,10.41,5.53,15.17,9.38A179.69,179.69,0,0,1,73.3,156.43a59.93,59.93,0,0,1-3.21-9.85c-1.11-4.14-2.25-8.42-3.88-10.76-2.8-4-8.51-7.76-13.54-11.06-1.3-.85-2.57-1.68-3.77-2.5a1.41,1.41,0,0,0-.42-.22A1.71,1.71,0,0,0,47.93,122Z" transform="translate(0.01 0)"/><path class="cls-2" d="M100.59,145.56l-7.19-6.12a41.39,41.39,0,0,0-8.42-5,41.81,41.81,0,0,1-8-4.69c-2.66-2.17-4.65-6-8.27-13-.74-1.43-1.54-3-2.44-4.69-4.66-8.87-6-12.59-4-15.78,1-1.77,3-3,5.78-3.67l.29-.07.29,0c5.31.83,9.34,2.85,12,6h0c2.51,3,2.73,6.4,3,9.67a22.3,22.3,0,0,0,.94,6,124.42,124.42,0,0,0,11.18,23.33Zm-32.13-50a5.56,5.56,0,0,0-3.62,2.23c-1.1,1.79-.14,4.78,4.1,12.83l2.45,4.71c3.32,6.42,5.32,10.3,7.5,12.08a39,39,0,0,0,7.41,4.32c1.19.59,2.39,1.18,3.58,1.82a126.41,126.41,0,0,1-8.23-18.37,24.18,24.18,0,0,1-1.11-6.77c-.21-3-.38-5.69-2.26-8h0C76.16,97.91,72.94,96.31,68.46,95.56Z" transform="translate(0.01 0)"/><path class="cls-2" d="M125.91,123.57l-3.26-3.34c-3.05-3.12-6.05-6.44-8.94-9.88a63.22,63.22,0,0,1-5.41-7,47,47,0,0,1-5.87-14.51A44.36,44.36,0,0,1,100.72,77h0c0-.54,0-13.14,3.56-16.34a3,3,0,0,1,2.36-.84c4.48.38,8.48,9.31,11.88,17.66.38.94.68,1.69.89,2.15l.82,1.77c2.79,6,5,10.8,4.31,18A83.17,83.17,0,0,0,125.2,119ZM103.72,77a42.07,42.07,0,0,0,1.61,11.1,44.46,44.46,0,0,0,5.5,13.63A64,64,0,0,0,116,108.4q2.79,3.31,5.68,6.44a86,86,0,0,1-.1-15.72c.61-6.4-1.35-10.62-4-16.46l-.82-1.79c-.23-.48-.55-1.27-1-2.26-4.2-10.32-7.35-15.63-9.37-15.81C105.2,63.28,103.72,69.92,103.72,77Z" transform="translate(0.01 0)"/></svg>