<svg xmlns="http://www.w3.org/2000/svg" id="smog" viewBox="0 0 1847 5923" width="44" height="128" style="fill: rgb(255, 255, 255);"><path d="M0 1243q0-150 96.5-267T343 824q36-178 181.5-293.5T857 415q180 0 320.5 110.5T1361 814h30q121 0 226 52t167.5 142.5T1847 1205q0 180-138 305 0 56-34.5 128.5T1582 1770t-117 72q-20 99-92 167t-174 91q48 48 48 113 0 79-56 134.5t-135 55.5q-78 0-134-55.5T866 2213q0-9 4.5-28t4.5-29h-9q-94 0-161-67.5T638 1927q0-37 39-113-78-41-125-134H419q-175-15-297-138.5T0 1243z"/></svg>